<svg id="svg" version="1.1" xmlns="http://www.w3.org/2000/svg" xmlns:xlink="http://www.w3.org/1999/xlink" width="400" height="400" viewBox="0, 0, 400,400"><g id="svgg"><path id="path0" d="M177.074 163.741 L 175.322 165.000 176.461 165.930 L 177.600 166.861 177.600 177.798 C 177.600 187.475,177.519 188.878,176.900 189.975 C 176.064 191.456,176.542 191.984,178.726 191.994 C 181.072 192.005,181.725 191.402,180.963 189.929 C 179.255 186.626,180.624 173.200,182.668 173.200 C 183.062 173.200,182.781 172.839,181.959 172.285 L 180.600 171.370 180.487 167.128 C 180.352 162.071,179.951 161.673,177.074 163.741 M147.984 164.810 C 147.015 165.409,148.734 166.101,150.051 165.642 C 152.047 164.947,154.838 165.104,156.300 165.996 L 157.600 166.788 157.600 177.775 C 157.600 185.521,157.457 189.076,157.116 189.825 C 156.499 191.180,157.446 192.000,159.627 192.000 C 161.502 192.000,162.161 191.275,161.609 189.823 C 161.367 189.186,161.200 184.298,161.200 177.844 L 161.200 166.939 162.145 166.052 C 163.793 164.504,169.061 164.939,170.261 166.722 L 171.150 168.044 171.564 166.545 C 171.792 165.720,171.884 164.950,171.768 164.835 C 171.460 164.527,148.481 164.503,147.984 164.810 M254.243 165.033 C 254.109 165.381,253.999 166.056,253.998 166.533 C 253.996 167.572,251.692 170.190,250.426 170.592 L 249.525 170.878 250.662 172.064 L 251.800 173.250 252.041 182.125 C 252.322 192.468,252.077 191.106,253.787 191.820 C 256.309 192.874,258.339 191.939,256.821 190.421 C 255.768 189.368,255.438 185.532,255.774 178.244 C 256.271 167.478,255.583 161.541,254.243 165.033 M111.683 166.219 C 107.259 167.028,107.230 167.089,107.213 175.486 C 107.198 183.423,107.314 183.689,110.331 182.624 C 111.212 182.313,112.778 181.932,113.810 181.778 C 115.151 181.576,115.978 181.169,116.709 180.348 C 117.272 179.717,117.972 179.200,118.266 179.200 C 119.575 179.200,118.756 172.715,117.342 171.880 C 116.978 171.665,116.800 170.738,116.800 169.060 C 116.800 165.390,116.657 165.311,111.683 166.219 M95.724 170.407 C 94.802 170.596,93.632 171.011,93.124 171.330 C 92.616 171.650,91.525 172.125,90.700 172.386 L 89.200 172.862 89.200 179.050 L 89.200 185.238 90.269 186.229 C 91.788 187.637,92.832 187.775,95.053 186.862 C 96.124 186.422,97.683 185.948,98.518 185.809 C 99.648 185.622,100.134 185.300,100.418 184.552 C 100.868 183.368,100.939 170.933,100.497 170.660 C 99.788 170.222,97.277 170.089,95.724 170.407 M186.500 171.076 C 186.885 171.176,187.515 171.176,187.900 171.076 C 188.285 170.975,187.970 170.893,187.200 170.893 C 186.430 170.893,186.115 170.975,186.500 171.076 M234.000 170.957 C 234.000 171.346,235.127 171.492,235.636 171.169 C 236.047 170.909,235.901 170.811,235.100 170.806 C 234.495 170.803,234.000 170.871,234.000 170.957 M190.026 172.168 C 189.615 172.663,189.694 173.008,190.463 174.086 C 191.611 175.695,192.139 187.332,191.171 189.671 C 190.531 191.214,191.360 192.000,193.627 192.000 C 195.502 192.000,196.161 191.275,195.609 189.823 C 195.384 189.232,195.200 185.632,195.200 181.823 C 195.200 176.155,195.091 174.808,194.600 174.400 C 194.270 174.126,194.000 173.676,194.000 173.400 C 194.000 172.141,190.858 171.167,190.026 172.168 M293.000 172.046 C 290.155 172.695,290.108 172.751,291.512 173.850 L 292.800 174.858 292.800 181.732 C 292.800 185.512,292.638 189.171,292.440 189.862 C 291.984 191.451,292.488 192.000,294.404 192.000 C 296.556 192.000,297.499 191.174,296.884 189.825 C 296.565 189.125,296.400 186.419,296.400 181.903 L 296.400 175.044 297.467 173.930 L 298.535 172.816 297.080 172.208 C 295.464 171.533,295.280 171.525,293.000 172.046 M302.681 171.853 C 301.512 173.021,304.438 174.852,305.678 173.729 C 306.282 173.183,306.327 172.960,305.912 172.567 C 305.276 171.963,303.060 171.473,302.681 171.853 M205.700 172.796 C 204.985 173.232,204.400 173.757,204.400 173.963 C 204.400 174.170,203.906 174.925,203.303 175.642 C 201.605 177.661,201.636 184.841,203.357 187.768 C 205.384 191.217,208.491 193.034,210.667 192.042 C 211.557 191.637,211.964 190.800,211.272 190.800 C 210.607 190.800,208.401 188.505,207.786 187.174 C 207.437 186.418,206.888 185.350,206.566 184.800 C 206.193 184.165,206.074 183.362,206.240 182.600 C 206.383 181.940,206.469 180.404,206.430 179.187 C 206.356 176.885,207.888 173.216,208.934 173.187 C 209.507 173.172,208.014 171.999,207.424 172.001 C 207.191 172.002,206.415 172.360,205.700 172.796 M214.587 172.421 C 214.444 172.652,214.779 173.260,215.332 173.772 C 216.026 174.415,216.415 175.305,216.592 176.651 C 217.037 180.033,217.355 180.464,219.302 180.323 C 221.210 180.185,222.074 177.623,220.620 176.416 C 220.279 176.134,219.999 175.699,219.998 175.451 C 219.990 173.592,215.439 171.043,214.587 172.421 M236.683 172.529 C 236.571 172.819,236.828 173.275,237.255 173.541 C 238.827 174.523,239.844 178.810,238.808 180.089 C 238.127 180.931,238.129 181.007,238.866 182.004 C 240.049 183.604,239.795 190.026,238.528 190.583 C 237.774 190.914,238.020 191.063,240.328 191.674 C 243.668 192.559,244.186 192.412,243.792 190.695 C 243.628 189.983,243.421 186.700,243.332 183.400 C 243.103 174.966,241.722 172.000,238.024 172.000 C 237.398 172.000,236.794 172.238,236.683 172.529 M269.873 172.814 C 266.573 175.410,264.918 182.611,266.751 186.400 C 268.914 190.872,272.159 193.185,274.667 192.042 C 275.557 191.637,275.964 190.800,275.272 190.800 C 274.473 190.800,272.369 188.395,271.583 186.584 C 270.060 183.071,270.035 182.954,270.582 181.899 C 270.899 181.290,270.968 180.677,270.758 180.346 C 269.906 179.001,271.035 174.899,272.620 173.583 C 274.416 172.093,271.741 171.345,269.873 172.814 M279.210 172.385 C 278.708 172.703,278.745 172.894,279.461 173.679 C 280.466 174.780,281.367 177.389,281.038 178.245 C 280.551 179.515,281.523 180.400,283.406 180.400 C 285.850 180.400,286.211 179.143,284.604 176.229 C 282.701 172.777,280.768 171.400,279.210 172.385 M228.151 173.100 C 228.028 173.485,227.775 174.160,227.589 174.600 C 226.689 176.725,226.740 177.078,228.016 177.607 C 229.636 178.278,230.629 177.485,230.065 175.972 C 229.854 175.406,229.849 174.610,230.054 174.066 C 230.247 173.553,230.304 172.968,230.179 172.766 C 229.789 172.136,228.386 172.367,228.151 173.100 M78.600 175.200 C 77.720 175.625,76.545 175.979,75.989 175.986 C 73.378 176.021,73.200 176.545,73.200 184.180 C 73.200 190.134,73.289 191.149,73.833 191.357 C 75.064 191.830,78.221 191.573,79.800 190.873 C 80.680 190.482,82.170 189.916,83.111 189.614 L 84.821 189.065 84.711 183.432 C 84.604 178.026,84.564 177.784,83.700 177.405 C 83.092 177.138,82.800 176.666,82.800 175.948 C 82.800 174.230,81.199 173.945,78.600 175.200 M230.314 182.943 C 230.015 183.242,229.081 183.736,228.238 184.041 C 224.468 185.404,225.329 191.442,229.359 191.897 C 231.351 192.121,231.735 191.654,230.594 190.393 C 228.995 188.626,229.999 184.326,232.179 183.607 C 232.965 183.348,233.505 182.970,233.380 182.768 C 233.034 182.208,230.928 182.329,230.314 182.943 M217.600 190.800 C 216.713 191.084,216.772 191.125,218.124 191.160 C 219.046 191.184,219.550 191.042,219.400 190.800 C 219.122 190.350,219.004 190.350,217.600 190.800 M281.415 190.763 C 280.707 191.040,280.739 191.098,281.733 191.347 C 282.934 191.649,283.749 191.365,283.383 190.772 C 283.114 190.338,282.511 190.335,281.415 190.763 M62.600 194.800 C 62.169 195.497,62.808 196.092,63.431 195.574 C 63.739 195.318,63.893 194.950,63.772 194.755 C 63.480 194.283,62.906 194.305,62.600 194.800 M74.300 196.465 C 73.293 196.833,73.200 197.042,73.200 198.938 C 73.200 200.703,73.067 201.069,72.300 201.405 C 71.100 201.932,70.696 210.239,71.816 211.359 C 72.789 212.332,79.740 212.285,80.483 211.300 C 80.774 210.915,81.369 210.401,81.806 210.158 C 82.491 209.776,82.615 209.225,82.711 206.158 C 82.784 203.808,82.999 202.464,83.345 202.200 C 85.418 200.618,85.389 197.001,83.300 196.421 C 81.426 195.901,75.770 195.928,74.300 196.465 M91.285 197.117 C 89.437 198.924,89.200 199.670,89.200 203.685 C 89.200 206.887,89.089 207.517,88.425 208.086 C 86.186 210.003,88.951 212.000,93.845 212.000 C 97.808 212.000,98.800 211.616,98.800 210.081 C 98.800 209.333,99.083 208.865,99.700 208.595 C 100.548 208.223,100.606 207.935,100.712 203.590 C 100.817 199.268,100.879 198.955,101.710 198.590 C 104.540 197.344,102.520 196.418,96.340 196.129 C 92.510 195.950,92.471 195.958,91.285 197.117 M109.600 196.400 C 109.270 196.613,108.595 196.791,108.100 196.794 C 107.226 196.800,107.200 196.918,107.200 200.854 C 107.200 204.665,107.140 204.964,106.200 205.835 C 104.614 207.305,104.886 210.746,106.653 211.551 C 107.942 212.138,114.205 212.130,115.326 211.540 C 116.548 210.897,116.787 210.425,116.794 208.646 C 116.798 207.507,117.067 206.844,117.800 206.165 C 119.174 204.891,119.355 197.125,118.026 196.414 C 117.050 195.892,110.404 195.881,109.600 196.400 M158.358 209.100 C 158.125 209.705,157.589 210.866,157.167 211.679 C 155.757 214.399,156.232 216.348,158.128 215.627 C 159.200 215.220,159.611 215.798,160.243 218.600 C 160.392 219.260,160.846 220.464,161.252 221.274 C 161.736 222.241,161.907 223.166,161.748 223.960 C 161.412 225.642,161.855 227.100,162.793 227.398 C 163.305 227.560,163.784 228.324,164.154 229.569 C 164.467 230.625,164.953 231.856,165.234 232.305 C 165.658 232.985,165.634 233.289,165.087 234.124 C 164.244 235.411,164.667 235.602,168.333 235.594 C 171.514 235.587,172.680 235.093,171.155 234.398 C 170.072 233.905,168.320 230.347,167.654 227.292 C 167.449 226.352,167.006 225.164,166.670 224.650 C 166.333 224.137,165.927 223.018,165.767 222.164 C 165.607 221.310,165.055 219.708,164.542 218.605 C 164.028 217.502,163.606 216.276,163.604 215.879 C 163.602 215.483,163.253 214.493,162.828 213.679 C 162.404 212.866,161.865 211.465,161.632 210.566 C 161.338 209.436,160.892 208.788,160.185 208.466 C 158.824 207.846,158.845 207.839,158.358 209.100 M203.800 215.418 C 201.150 217.622,200.491 218.560,199.602 221.393 C 199.100 222.995,198.791 224.732,198.915 225.253 C 200.498 231.876,200.791 232.426,203.826 234.497 C 205.478 235.624,212.283 236.078,214.600 235.216 L 215.400 234.918 214.600 234.683 C 214.160 234.553,212.667 234.466,211.282 234.488 C 207.491 234.550,204.482 231.650,203.663 227.145 C 202.958 223.266,203.589 222.969,211.758 223.341 C 214.861 223.482,217.610 223.462,217.866 223.296 C 219.089 222.505,216.234 216.000,214.665 216.000 C 214.444 216.000,213.924 215.693,213.510 215.319 C 212.145 214.083,205.321 214.152,203.800 215.418 M225.842 215.614 L 223.928 216.828 224.964 217.643 L 226.000 218.458 226.000 226.020 L 226.000 233.582 224.976 234.252 C 223.512 235.212,224.367 235.586,228.033 235.594 C 231.580 235.601,231.935 235.402,230.593 234.159 C 229.482 233.129,229.069 221.277,230.031 218.046 C 231.060 214.591,229.178 213.498,225.842 215.614 M232.540 214.900 C 232.311 215.267,232.087 215.224,235.171 215.407 C 239.750 215.679,240.376 217.059,240.390 226.919 C 240.400 233.140,240.385 233.252,239.407 234.159 C 238.065 235.402,238.420 235.601,241.967 235.594 C 245.606 235.587,246.487 235.211,245.061 234.277 C 244.077 233.632,244.074 233.608,243.937 225.915 C 243.789 217.574,243.764 217.474,241.426 215.619 C 239.874 214.387,233.196 213.847,232.540 214.900 M283.600 214.760 C 281.996 215.448,280.000 216.941,280.000 217.452 C 280.000 217.767,279.739 218.125,279.419 218.248 C 277.532 218.972,277.314 231.600,279.188 231.600 C 279.385 231.600,279.656 231.947,279.791 232.372 C 280.587 234.880,291.418 237.142,293.356 235.204 C 293.930 234.630,292.592 234.268,290.885 234.536 C 285.781 235.338,279.617 227.809,282.272 224.018 L 282.929 223.080 289.565 223.334 C 297.534 223.640,297.375 223.704,296.353 220.595 C 295.603 218.315,294.624 217.083,292.012 215.132 C 291.096 214.449,284.959 214.177,283.600 214.760 M175.468 215.110 C 175.726 215.274,176.071 215.946,176.235 216.604 C 176.399 217.262,176.953 218.592,177.467 219.560 C 177.980 220.527,178.400 221.586,178.400 221.912 C 178.400 222.239,178.741 223.067,179.157 223.753 C 179.573 224.439,180.044 225.615,180.203 226.366 C 180.362 227.117,180.922 228.539,181.446 229.525 C 181.971 230.512,182.400 231.611,182.400 231.967 C 182.400 232.886,184.322 235.600,184.974 235.600 C 186.276 235.600,188.451 229.270,187.437 228.432 C 187.197 228.233,186.467 228.010,185.815 227.935 C 184.756 227.814,184.540 227.537,183.778 225.316 C 183.309 223.950,182.733 222.600,182.498 222.316 C 182.264 222.032,181.945 221.123,181.791 220.297 C 181.636 219.470,181.164 218.354,180.742 217.817 C 180.215 217.148,180.055 216.521,180.231 215.821 C 180.487 214.800,180.486 214.800,177.743 214.806 C 176.235 214.809,175.211 214.946,175.468 215.110 M191.520 215.280 C 191.784 215.544,192.000 216.062,192.000 216.431 C 192.000 217.785,193.140 218.184,193.439 216.935 C 193.588 216.311,193.888 215.575,194.104 215.300 C 194.406 214.916,194.096 214.800,192.769 214.800 C 191.424 214.800,191.147 214.907,191.520 215.280 M251.986 215.574 C 252.226 216.023,252.400 219.299,252.400 223.387 C 252.400 234.799,253.926 236.569,262.600 235.218 C 264.599 234.907,264.599 234.907,263.000 234.849 C 259.347 234.717,258.372 234.355,257.160 232.681 L 256.000 231.080 255.995 223.840 C 255.988 214.616,256.038 214.800,253.539 214.800 C 251.718 214.800,251.603 214.858,251.986 215.574 M266.410 215.826 C 267.011 217.408,266.899 230.645,266.263 233.094 C 265.658 235.429,265.790 235.600,268.200 235.600 C 271.018 235.600,272.549 233.765,271.161 232.051 C 270.477 231.206,270.400 230.393,270.400 223.982 C 270.400 215.284,270.264 214.800,267.820 214.800 C 266.053 214.800,266.027 214.819,266.410 215.826 M211.110 215.595 C 211.700 215.598,212.148 215.938,212.385 216.561 C 212.586 217.090,212.935 217.636,213.161 217.776 C 214.026 218.311,214.419 220.911,213.782 221.884 C 213.006 223.067,205.355 223.297,204.229 222.171 C 202.073 220.016,206.085 214.788,209.400 215.433 C 209.840 215.519,210.609 215.592,211.110 215.595 M290.013 215.829 C 291.715 216.300,293.147 220.853,291.966 222.034 C 290.917 223.083,283.217 223.184,282.367 222.160 C 281.576 221.208,281.894 219.154,283.013 217.986 C 283.556 217.420,284.000 216.759,284.000 216.518 C 284.000 215.554,287.548 215.148,290.013 215.829 M154.660 218.189 C 154.273 219.195,154.346 221.119,154.780 221.388 C 155.316 221.719,155.755 219.007,155.298 218.189 C 154.942 217.554,154.903 217.554,154.660 218.189 M103.150 218.179 C 103.013 218.319,99.265 218.426,94.821 218.418 L 86.742 218.404 85.371 219.449 L 84.000 220.495 84.000 224.000 L 84.000 227.505 85.371 228.551 C 86.738 229.593,86.766 229.596,94.871 229.660 C 99.342 229.695,103.760 229.736,104.688 229.751 C 110.781 229.853,111.026 218.938,104.948 218.131 C 104.097 218.018,103.288 218.040,103.150 218.179 M190.655 218.679 C 190.070 220.666,189.958 222.327,190.391 222.594 C 191.061 223.009,191.292 222.628,191.600 220.601 C 191.888 218.702,191.113 217.125,190.655 218.679 M152.658 224.079 C 151.959 226.689,152.733 228.582,153.893 227.100 C 154.748 226.007,154.716 224.861,153.807 224.007 L 152.904 223.158 152.658 224.079 M188.639 224.072 C 188.148 226.462,188.149 227.225,188.639 227.633 C 189.228 228.121,189.629 227.073,189.739 224.759 C 189.810 223.269,188.918 222.711,188.639 224.072 M150.585 230.542 C 150.416 231.441,150.467 232.227,150.709 232.469 C 151.285 233.045,151.771 230.635,151.263 229.727 C 150.935 229.140,150.822 229.275,150.585 230.542 M148.871 234.078 C 146.457 235.248,148.689 236.209,151.850 235.361 L 152.700 235.133 151.804 234.166 C 150.748 233.027,151.022 233.036,148.871 234.078 " stroke="none" fill="#d3c3d9" fill-rule="evenodd"></path><path id="path1" d="M0.000 200.000 L 0.000 400.000 200.000 400.000 L 400.000 400.000 400.000 200.000 L 400.000 0.000 200.000 0.000 L 0.000 0.000 0.000 200.000 M181.900 162.085 C 182.221 162.350,182.400 163.605,182.400 165.599 C 182.400 170.050,182.722 171.490,183.475 170.414 C 184.322 169.205,191.194 169.194,192.400 170.400 C 192.840 170.840,193.425 171.200,193.700 171.200 C 193.975 171.200,194.740 171.875,195.400 172.700 L 196.600 174.200 196.744 181.993 C 196.875 189.088,196.956 189.834,197.644 190.316 C 198.658 191.026,198.647 193.039,197.626 193.586 C 196.524 194.176,189.082 194.122,188.480 193.520 C 187.758 192.798,187.901 191.301,188.810 190.073 C 189.562 189.054,189.611 188.474,189.510 181.803 L 189.400 174.629 188.104 174.258 C 187.324 174.034,185.969 174.029,184.704 174.243 L 182.600 174.600 182.491 181.911 L 182.382 189.221 183.391 190.157 C 186.015 192.589,184.403 194.000,179.000 194.000 C 173.605 194.000,171.985 192.588,174.600 190.165 L 175.600 189.238 175.600 178.041 L 175.600 166.844 174.500 166.316 C 173.175 165.681,173.006 164.108,174.191 163.444 C 174.626 163.200,175.175 162.760,175.410 162.466 C 176.353 161.291,180.635 161.040,181.900 162.085 M172.186 163.740 C 172.810 164.197,172.888 164.635,172.687 166.581 C 172.284 170.482,170.142 171.409,169.456 167.980 L 169.220 166.800 166.010 166.800 L 162.800 166.800 162.800 178.305 L 162.800 189.810 163.700 190.205 C 165.113 190.825,165.179 193.076,163.799 193.600 C 162.284 194.176,155.074 194.114,154.480 193.520 C 153.757 192.797,153.902 191.251,154.800 190.109 C 155.557 189.147,155.600 188.486,155.600 177.946 L 155.600 166.800 153.047 166.800 C 150.579 166.800,150.438 166.856,148.804 168.490 L 147.114 170.181 146.357 169.246 C 144.818 167.346,145.429 163.974,147.400 163.489 C 149.457 162.984,171.456 163.206,172.186 163.740 M256.171 163.829 C 256.612 164.270,256.800 165.224,256.800 167.029 L 256.800 169.600 258.320 169.600 C 260.060 169.600,260.800 170.161,260.800 171.480 C 260.800 172.766,259.429 174.000,258.000 174.000 L 256.800 174.000 256.800 181.173 L 256.800 188.346 257.943 189.159 L 259.086 189.973 260.013 188.987 C 261.739 187.149,265.130 188.053,263.496 189.915 C 263.165 190.292,262.774 190.996,262.627 191.480 C 262.480 191.963,262.032 192.463,261.632 192.590 C 261.233 192.717,260.584 193.176,260.191 193.610 C 259.626 194.235,258.957 194.400,257.000 194.400 C 255.043 194.400,254.374 194.235,253.809 193.610 C 253.416 193.176,252.771 192.718,252.375 192.592 C 251.975 192.465,251.534 191.796,251.382 191.082 C 251.231 190.377,250.903 189.548,250.654 189.240 C 250.368 188.887,250.150 186.150,250.065 181.852 L 249.930 175.026 248.765 173.699 C 246.858 171.527,247.303 169.879,249.938 169.352 C 250.632 169.214,251.200 168.866,251.200 168.581 C 251.200 168.295,251.650 167.527,252.200 166.873 C 252.750 166.219,253.200 165.408,253.200 165.071 C 253.200 164.311,254.269 163.200,255.000 163.200 C 255.299 163.200,255.826 163.483,256.171 163.829 M123.487 163.922 C 124.448 164.532,125.898 167.884,126.367 170.581 C 126.630 172.092,127.105 173.830,127.423 174.444 C 129.000 177.495,127.414 179.602,122.956 180.378 C 121.477 180.636,119.849 181.175,119.339 181.577 C 118.829 181.978,117.374 182.434,116.106 182.590 C 114.837 182.746,113.470 183.168,113.067 183.529 C 112.576 183.968,111.217 184.271,108.948 184.447 C 106.776 184.616,105.318 184.931,104.881 185.326 C 104.506 185.665,102.943 186.161,101.406 186.429 C 99.870 186.696,98.160 187.246,97.606 187.651 C 96.966 188.118,95.531 188.484,93.666 188.654 C 92.052 188.801,90.079 189.254,89.281 189.661 C 88.483 190.067,87.173 190.400,86.369 190.400 C 85.504 190.400,84.485 190.733,83.871 191.216 C 83.173 191.765,81.716 192.181,79.408 192.490 C 77.340 192.766,76.038 193.117,76.123 193.374 C 76.291 193.884,83.168 194.481,88.200 194.422 C 90.180 194.399,94.140 194.408,97.000 194.442 C 99.860 194.476,103.865 194.479,105.900 194.450 C 116.517 194.295,123.151 194.480,127.315 195.047 C 130.592 195.493,130.453 194.521,130.165 215.000 C 129.879 235.302,129.842 235.532,126.782 236.144 C 124.575 236.585,65.629 236.444,64.791 235.995 C 63.533 235.322,63.205 232.971,63.201 224.600 C 63.199 220.200,63.080 213.511,62.937 209.736 C 62.646 202.061,63.067 203.186,59.100 199.481 C 56.374 196.935,57.297 191.230,60.692 189.641 C 61.728 189.157,61.619 187.791,60.346 185.293 C 58.519 181.710,60.665 178.335,65.285 177.524 C 66.668 177.281,68.160 176.850,68.600 176.566 C 69.040 176.283,70.660 175.834,72.200 175.570 C 73.740 175.306,75.410 174.770,75.912 174.378 C 76.493 173.924,77.911 173.564,79.821 173.385 C 81.470 173.231,83.482 172.766,84.294 172.352 C 85.105 171.938,86.506 171.600,87.407 171.600 C 88.508 171.600,89.471 171.285,90.349 170.638 C 91.301 169.935,92.426 169.600,94.526 169.395 C 96.107 169.241,97.686 168.862,98.035 168.554 C 98.384 168.246,100.094 167.815,101.835 167.595 C 103.735 167.356,105.786 166.798,106.968 166.198 C 108.072 165.638,109.624 165.200,110.505 165.200 C 111.468 165.200,112.466 164.891,113.091 164.400 C 114.157 163.562,122.329 163.186,123.487 163.922 M216.400 170.400 C 216.840 170.840,217.484 171.200,217.831 171.200 C 218.666 171.200,220.800 173.359,220.800 174.205 C 220.800 174.572,221.190 175.188,221.667 175.574 C 222.384 176.155,222.533 176.695,222.533 178.716 C 222.533 182.412,222.559 182.399,215.251 182.406 C 211.813 182.409,208.788 182.547,208.528 182.712 C 207.839 183.151,208.706 186.859,209.654 187.523 C 210.064 187.810,210.400 188.302,210.400 188.615 C 210.400 190.073,217.355 189.945,218.939 188.457 C 220.252 187.224,222.142 187.392,222.336 188.759 C 222.472 189.727,219.755 192.800,218.762 192.800 C 218.522 192.800,217.869 193.160,217.309 193.600 C 215.857 194.742,209.184 194.784,208.058 193.658 C 207.650 193.250,206.824 192.792,206.222 192.641 C 203.932 192.067,201.200 188.161,201.200 185.462 C 201.200 184.712,200.930 183.874,200.600 183.600 C 199.834 182.965,199.828 181.181,200.587 180.176 C 200.910 179.749,201.180 178.827,201.187 178.126 C 201.202 176.656,201.806 174.891,202.596 174.011 C 204.730 171.633,205.267 171.200,206.086 171.200 C 206.593 171.200,207.232 170.840,207.507 170.400 C 207.950 169.691,208.440 169.600,211.803 169.600 C 215.067 169.600,215.712 169.712,216.400 170.400 M239.616 170.416 C 240.065 170.865,240.875 171.400,241.416 171.606 C 241.957 171.812,242.400 172.248,242.400 172.575 C 242.400 172.901,242.788 173.530,243.261 173.971 C 244.405 175.037,244.747 177.367,244.776 184.290 L 244.800 189.980 245.999 189.740 C 248.486 189.243,249.034 190.807,247.126 192.961 C 245.570 194.719,242.429 195.076,241.507 193.600 C 241.148 193.025,240.574 192.800,239.467 192.800 C 238.532 192.800,237.526 193.114,236.909 193.600 C 235.505 194.705,229.578 194.775,228.495 193.700 C 228.106 193.315,227.301 192.781,226.706 192.514 C 226.052 192.220,225.516 191.585,225.356 190.914 C 225.209 190.301,224.961 189.620,224.803 189.400 C 223.825 188.037,224.946 183.605,226.269 183.601 C 226.527 183.601,227.282 183.143,227.946 182.584 C 228.762 181.897,229.842 181.488,231.277 181.323 C 232.445 181.189,233.829 180.746,234.354 180.339 C 234.879 179.933,235.739 179.600,236.266 179.600 C 238.834 179.600,237.828 174.760,235.153 174.243 C 232.564 173.742,230.561 174.561,231.668 175.668 C 232.070 176.070,232.400 176.657,232.400 176.972 C 232.400 177.747,228.901 180.087,228.562 179.538 C 228.419 179.307,227.694 178.864,226.951 178.554 C 224.495 177.527,225.561 172.055,228.358 171.332 C 228.885 171.196,229.650 170.750,230.058 170.342 C 231.207 169.193,238.448 169.248,239.616 170.416 M280.400 170.400 C 280.840 170.840,281.484 171.200,281.831 171.200 C 282.744 171.200,284.800 173.395,284.800 174.369 C 284.800 174.847,285.059 175.200,285.410 175.200 C 286.319 175.200,286.902 177.146,286.650 179.342 C 286.299 182.409,286.321 182.400,279.384 182.400 C 276.019 182.400,273.008 182.499,272.694 182.619 C 271.891 182.927,272.661 186.804,273.668 187.523 C 274.071 187.810,274.400 188.302,274.400 188.615 C 274.400 190.073,281.355 189.945,282.939 188.457 C 284.309 187.170,286.153 187.391,286.323 188.861 C 286.402 189.545,286.179 190.114,285.696 190.461 C 285.284 190.758,284.839 191.292,284.706 191.649 C 284.573 192.005,283.995 192.415,283.422 192.559 C 282.849 192.703,282.024 193.176,281.590 193.610 C 280.406 194.794,273.186 194.786,272.000 193.600 C 271.560 193.160,270.936 192.800,270.614 192.800 C 269.805 192.800,267.200 190.452,267.200 189.723 C 267.200 189.396,266.808 188.811,266.330 188.424 C 265.647 187.870,265.421 187.169,265.278 185.159 C 265.178 183.752,264.853 182.250,264.556 181.823 C 264.103 181.170,264.103 180.945,264.559 180.423 C 264.858 180.080,265.186 178.872,265.288 177.739 C 265.539 174.975,268.308 171.200,270.086 171.200 C 270.593 171.200,271.232 170.840,271.507 170.400 C 271.950 169.691,272.440 169.600,275.803 169.600 C 279.067 169.600,279.712 169.712,280.400 170.400 M306.572 171.260 C 308.527 173.039,308.535 173.318,306.695 175.434 C 305.697 176.582,304.696 176.665,303.716 175.682 C 302.588 174.550,300.993 174.018,299.736 174.353 L 298.600 174.657 298.490 181.817 C 298.389 188.474,298.438 189.054,299.190 190.073 C 300.099 191.301,300.242 192.798,299.520 193.520 C 298.918 194.122,291.476 194.176,290.374 193.586 C 289.314 193.019,289.331 190.972,290.400 190.400 C 291.598 189.759,291.647 174.996,290.453 174.617 C 287.839 173.787,288.749 171.200,291.654 171.200 C 292.284 171.200,293.115 170.885,293.501 170.500 C 294.087 169.914,295.066 169.785,299.486 169.710 L 304.770 169.620 306.572 171.260 M210.450 173.669 C 210.199 174.071,209.733 174.400,209.415 174.400 C 208.785 174.400,208.142 176.859,208.584 177.574 C 208.734 177.817,210.208 178.000,212.024 178.000 L 215.200 178.000 215.182 176.500 C 215.159 174.562,211.325 172.268,210.450 173.669 M274.800 173.441 C 274.800 173.759,274.367 174.185,273.837 174.386 C 272.862 174.757,272.083 176.764,272.594 177.590 C 272.984 178.222,279.069 178.117,279.316 177.475 C 279.747 176.350,279.095 174.740,278.048 174.346 C 277.471 174.129,276.505 173.706,275.900 173.406 C 274.956 172.938,274.800 172.943,274.800 173.441 M235.656 183.613 C 235.136 184.046,234.398 184.400,234.015 184.400 C 232.830 184.400,230.800 186.665,230.800 187.987 C 230.800 189.518,233.015 190.321,235.687 189.759 L 237.400 189.400 237.522 187.016 C 237.731 182.966,237.323 182.224,235.656 183.613 M162.389 208.539 C 162.615 209.188,162.800 209.963,162.800 210.260 C 162.800 210.557,163.145 211.145,163.567 211.567 C 164.047 212.047,164.443 213.207,164.624 214.667 C 164.816 216.206,165.158 217.171,165.629 217.503 C 166.089 217.826,166.440 218.780,166.615 220.180 C 166.778 221.490,167.174 222.615,167.610 223.009 C 168.020 223.380,168.454 224.537,168.610 225.676 C 168.763 226.782,169.208 228.008,169.600 228.400 C 169.992 228.792,170.436 230.008,170.587 231.102 C 170.845 232.981,170.945 233.117,172.389 233.549 C 175.198 234.391,174.635 236.136,171.397 236.621 C 168.494 237.057,164.273 236.671,163.031 235.857 L 161.924 235.132 162.793 234.208 C 163.911 233.017,163.597 229.924,162.264 228.990 C 158.083 226.061,149.746 230.731,153.544 233.873 C 155.939 235.854,151.203 237.659,146.800 236.444 C 145.530 236.094,145.149 234.137,146.273 233.737 C 147.805 233.194,149.113 231.288,149.403 229.176 C 149.559 228.041,150.014 226.786,150.415 226.385 C 150.815 225.985,151.266 224.833,151.417 223.824 C 151.569 222.816,152.006 221.588,152.390 221.095 C 152.774 220.603,153.216 219.332,153.373 218.271 C 153.529 217.210,153.981 216.019,154.376 215.624 C 154.798 215.202,155.212 213.970,155.378 212.637 C 155.577 211.042,155.890 210.226,156.431 209.888 C 156.854 209.624,157.200 209.098,157.200 208.719 C 157.200 206.265,161.543 206.114,162.389 208.539 M182.196 214.051 C 182.414 214.261,182.607 215.684,182.624 217.214 C 182.650 219.491,182.813 220.163,183.525 220.920 C 184.030 221.458,184.502 222.631,184.651 223.723 C 185.047 226.607,186.970 226.560,187.355 223.656 C 187.504 222.529,187.929 221.427,188.365 221.032 C 189.602 219.912,189.847 216.915,188.793 215.792 L 187.924 214.868 188.952 214.195 C 190.390 213.253,195.645 213.275,197.102 214.230 L 198.146 214.914 197.229 215.657 C 196.724 216.066,195.993 216.400,195.603 216.400 C 195.097 216.400,194.765 216.917,194.438 218.216 C 194.186 219.215,193.736 220.126,193.438 220.241 C 193.140 220.355,192.782 221.312,192.642 222.368 C 192.495 223.474,192.069 224.576,191.635 224.968 C 191.222 225.342,190.762 226.460,190.613 227.453 C 190.464 228.446,190.019 229.581,189.625 229.975 C 189.230 230.370,188.783 231.517,188.632 232.524 C 187.854 237.717,182.081 238.151,181.382 233.070 C 181.208 231.805,180.826 230.813,180.396 230.512 C 180.004 230.238,179.577 229.241,179.429 228.256 C 179.284 227.286,178.828 226.187,178.416 225.814 C 177.973 225.414,177.550 224.289,177.382 223.070 C 177.206 221.789,176.827 220.814,176.385 220.504 C 175.992 220.229,175.552 219.300,175.407 218.439 C 175.199 217.210,174.893 216.770,173.984 216.393 C 171.395 215.321,171.804 214.100,174.935 213.555 C 176.955 213.203,181.648 213.524,182.196 214.051 M213.582 213.595 C 215.463 214.134,218.330 217.018,218.642 218.685 C 218.779 219.413,219.061 220.114,219.270 220.243 C 219.875 220.617,220.441 222.440,220.194 223.219 C 219.807 224.437,217.728 224.800,211.140 224.800 L 204.800 224.800 204.800 226.351 C 204.800 227.217,205.056 228.114,205.380 228.383 C 205.698 228.648,206.156 229.461,206.397 230.190 C 206.642 230.932,207.179 231.606,207.617 231.720 C 208.048 231.833,208.400 232.212,208.400 232.563 C 208.400 233.590,213.630 233.472,214.579 232.423 C 215.571 231.327,217.530 230.959,218.296 231.725 C 219.093 232.522,218.638 234.413,217.582 234.689 C 217.152 234.801,216.800 235.125,216.800 235.408 C 216.800 236.080,214.690 236.800,212.720 236.800 C 211.862 236.800,210.647 237.065,210.020 237.389 C 209.016 237.909,208.822 237.909,208.391 237.389 C 208.122 237.065,207.306 236.800,206.577 236.800 C 203.820 236.800,199.867 234.124,199.385 231.932 C 199.239 231.265,198.777 230.377,198.359 229.959 C 197.138 228.738,197.152 221.030,198.377 219.975 C 198.777 219.631,199.225 218.796,199.374 218.119 C 199.657 216.828,202.764 213.861,204.218 213.491 C 205.664 213.124,212.192 213.196,213.582 213.595 M231.600 213.533 C 232.150 213.466,234.588 213.409,237.018 213.406 L 241.435 213.400 242.965 214.887 C 244.207 216.093,244.534 216.734,244.700 218.287 C 244.813 219.339,245.106 220.452,245.352 220.761 C 245.620 221.096,245.855 223.663,245.938 227.161 L 246.077 233.000 247.276 234.004 L 248.475 235.008 247.596 235.804 C 246.304 236.973,238.122 236.997,236.839 235.835 C 235.854 234.944,236.525 233.753,238.142 233.522 C 239.451 233.336,239.699 219.425,238.409 218.522 C 237.964 218.210,237.600 217.695,237.600 217.377 C 237.600 216.254,233.027 216.609,231.809 217.827 L 230.782 218.854 230.891 226.127 C 230.997 233.220,231.021 233.403,231.858 233.522 C 233.456 233.750,234.147 234.943,233.186 235.813 C 231.520 237.320,222.465 236.989,221.855 235.399 C 221.638 234.833,222.990 233.200,223.675 233.200 C 223.854 233.200,224.000 230.018,224.000 226.129 L 224.000 219.058 222.748 218.013 L 221.496 216.968 222.956 215.420 C 224.565 213.713,226.374 213.125,229.000 213.454 C 229.880 213.565,231.050 213.600,231.600 213.533 M256.959 214.381 C 257.746 215.168,257.813 215.764,258.007 223.711 C 258.249 233.682,258.069 233.200,261.544 233.200 C 265.325 233.200,265.200 233.501,265.200 224.384 L 265.200 216.528 264.200 216.073 C 261.692 214.930,263.713 213.481,267.864 213.444 C 272.472 213.404,272.400 213.254,272.400 222.947 L 272.400 230.970 273.449 231.806 C 274.340 232.516,274.455 232.838,274.214 233.935 C 273.728 236.147,272.520 236.594,266.894 236.643 C 263.780 236.670,261.785 236.855,261.497 237.143 C 260.961 237.679,258.944 237.756,258.633 237.253 C 258.515 237.062,257.605 236.814,256.612 236.702 C 255.159 236.539,254.471 236.165,253.102 234.797 L 251.400 233.095 251.260 224.747 C 251.130 217.049,251.064 216.400,250.404 216.400 C 249.014 216.400,247.808 215.057,248.604 214.396 C 250.234 213.044,255.611 213.034,256.959 214.381 M294.488 214.971 C 295.632 215.927,296.468 217.000,296.625 217.712 C 296.766 218.355,297.223 219.223,297.641 219.641 C 298.163 220.163,298.400 220.966,298.400 222.210 C 298.400 224.654,297.904 224.800,289.574 224.800 L 282.800 224.800 282.800 225.800 C 282.800 226.350,283.150 227.150,283.578 227.578 C 284.005 228.005,284.474 228.989,284.620 229.764 C 284.781 230.626,285.170 231.264,285.621 231.407 C 286.027 231.536,286.470 231.992,286.606 232.420 C 286.928 233.435,293.200 233.631,293.200 232.627 C 293.200 231.347,296.942 230.916,297.496 232.132 C 298.259 233.805,295.243 236.375,292.162 236.677 C 290.863 236.804,289.620 237.039,289.400 237.199 C 288.510 237.846,286.883 237.982,286.439 237.447 C 286.190 237.147,285.087 236.782,283.987 236.636 C 282.633 236.456,281.831 236.118,281.498 235.585 C 281.228 235.153,280.790 234.800,280.524 234.800 C 279.640 234.800,277.606 232.220,277.371 230.800 C 277.243 230.030,276.792 228.557,276.369 227.526 C 275.393 225.146,275.395 223.371,276.377 221.446 C 276.804 220.608,277.259 219.442,277.388 218.855 C 277.664 217.600,279.786 215.200,280.620 215.200 C 280.939 215.200,281.200 214.945,281.200 214.633 C 281.200 213.627,283.297 213.220,288.004 213.311 L 292.609 213.400 294.488 214.971 M206.473 217.800 C 206.222 218.350,205.743 218.800,205.409 218.800 C 204.999 218.800,204.800 219.192,204.800 220.000 L 204.800 221.200 209.000 221.200 C 213.032 221.200,214.604 220.624,212.635 219.869 C 212.325 219.750,211.839 219.010,211.555 218.226 C 210.867 216.323,207.283 216.022,206.473 217.800 M284.881 218.063 C 284.507 218.757,283.885 219.657,283.500 220.063 C 282.438 221.181,282.497 221.200,287.000 221.200 L 291.200 221.200 291.200 220.014 C 291.200 219.238,290.924 218.680,290.400 218.400 C 289.960 218.165,289.600 217.708,289.600 217.386 C 289.600 216.068,285.652 216.634,284.881 218.063 M157.749 218.676 C 156.884 218.846,156.024 222.267,156.608 223.213 C 156.866 223.631,158.393 223.731,159.286 223.388 C 159.839 223.176,159.383 218.318,158.824 218.454 C 158.701 218.484,158.217 218.584,157.749 218.676 " stroke="none" fill="#242424" fill-rule="evenodd"></path><path id="path2" d="M116.445 164.833 C 115.551 165.190,115.532 165.262,116.145 165.939 C 116.602 166.444,116.800 167.405,116.800 169.112 C 116.800 170.747,116.980 171.667,117.342 171.880 C 118.759 172.717,119.574 179.200,118.262 179.200 C 117.753 179.200,116.400 180.418,116.400 180.877 C 116.400 180.994,117.165 180.865,118.100 180.590 C 119.035 180.316,120.796 179.803,122.013 179.452 C 124.247 178.808,126.994 177.128,126.546 176.680 C 126.413 176.546,125.981 174.944,125.588 173.119 C 124.455 167.872,123.302 164.921,122.278 164.646 C 120.953 164.291,117.525 164.401,116.445 164.833 M104.600 168.159 C 101.154 168.849,98.385 170.113,99.658 170.415 L 100.600 170.638 100.600 177.920 C 100.600 185.787,100.537 185.598,102.851 184.644 C 103.593 184.339,105.145 183.962,106.300 183.807 C 108.387 183.527,108.948 183.096,107.800 182.655 C 107.011 182.353,106.900 168.860,107.680 168.080 C 108.274 167.486,107.912 167.496,104.600 168.159 M88.800 172.380 C 88.030 172.538,86.410 172.996,85.200 173.397 C 83.990 173.798,82.730 174.209,82.400 174.310 C 81.969 174.441,81.941 174.546,82.300 174.680 C 82.575 174.783,82.800 175.349,82.800 175.938 C 82.800 176.666,83.089 177.137,83.700 177.405 C 84.958 177.957,85.339 189.003,84.111 189.322 C 83.645 189.443,83.767 189.523,84.464 189.554 C 85.050 189.579,86.490 189.252,87.664 188.827 C 88.839 188.402,90.321 187.942,90.958 187.805 L 92.115 187.556 91.158 186.919 C 89.277 185.670,89.200 185.355,89.200 178.957 L 89.200 172.867 90.300 172.465 C 91.567 172.002,90.838 171.961,88.800 172.380 M71.784 176.961 C 71.116 177.252,69.148 177.780,67.411 178.134 C 62.492 179.137,60.285 181.377,61.434 184.200 C 62.584 187.027,62.589 189.931,61.445 190.452 C 60.870 190.714,60.400 191.159,60.400 191.442 C 60.400 191.724,60.040 192.206,59.601 192.514 C 57.261 194.153,58.741 198.989,61.903 200.033 C 64.002 200.727,64.023 200.886,64.322 218.194 C 64.536 230.628,64.720 234.481,65.120 234.880 C 66.108 235.868,125.105 235.618,125.832 234.624 C 126.288 234.000,126.400 231.783,126.400 223.346 C 126.400 213.582,126.452 212.809,127.140 212.323 C 129.420 210.714,130.416 197.236,128.300 196.639 C 126.222 196.053,117.778 195.876,118.300 196.429 C 119.346 197.539,118.958 205.092,117.800 206.165 C 117.067 206.844,116.798 207.507,116.794 208.646 C 116.787 210.425,116.548 210.897,115.326 211.540 C 114.205 212.130,107.942 212.138,106.653 211.551 C 104.886 210.746,104.614 207.305,106.200 205.835 C 107.140 204.964,107.200 204.665,107.200 200.854 C 107.200 196.918,107.226 196.800,108.100 196.794 C 108.595 196.791,109.270 196.613,109.600 196.400 C 110.005 196.138,108.603 196.010,105.276 196.006 C 102.094 196.002,100.440 196.141,100.600 196.400 C 100.736 196.620,101.300 196.800,101.853 196.800 C 103.117 196.800,103.020 198.013,101.710 198.590 C 100.879 198.955,100.817 199.268,100.712 203.590 C 100.606 207.935,100.548 208.223,99.700 208.595 C 99.083 208.865,98.800 209.333,98.800 210.081 C 98.800 212.986,89.204 212.865,88.102 209.945 C 87.714 208.918,87.760 208.655,88.425 208.086 C 89.088 207.518,89.200 206.887,89.200 203.730 C 89.200 200.340,89.697 198.000,90.418 198.000 C 90.578 198.000,91.003 197.550,91.363 197.000 L 92.018 196.000 87.709 196.013 C 84.040 196.024,83.504 196.104,84.100 196.557 C 85.345 197.502,84.873 201.034,83.345 202.200 C 82.999 202.464,82.784 203.808,82.711 206.158 C 82.615 209.225,82.491 209.776,81.806 210.158 C 81.369 210.401,80.774 210.915,80.483 211.300 C 79.740 212.285,72.789 212.332,71.816 211.359 C 70.696 210.239,71.100 201.932,72.300 201.405 C 73.064 201.070,73.200 200.702,73.200 198.966 C 73.200 197.242,73.341 196.854,74.100 196.488 C 74.824 196.139,74.320 196.049,71.514 196.027 C 67.785 195.998,67.200 196.316,67.200 198.374 C 67.200 198.828,67.063 199.200,66.896 199.200 C 66.555 199.200,66.636 192.831,66.980 192.486 C 67.101 192.366,67.200 192.464,67.200 192.705 C 67.200 194.507,69.359 194.613,72.271 192.953 C 73.190 192.429,74.270 191.986,74.671 191.968 C 75.166 191.947,75.046 191.808,74.300 191.535 L 73.200 191.133 73.200 184.247 C 73.200 179.424,73.344 177.216,73.680 176.880 C 74.339 176.221,73.390 176.261,71.784 176.961 M63.772 194.755 C 63.893 194.950,63.739 195.318,63.431 195.574 C 62.808 196.092,62.169 195.497,62.600 194.800 C 62.906 194.305,63.480 194.283,63.772 194.755 M107.848 219.647 C 111.174 222.870,109.000 229.823,104.688 229.751 C 103.760 229.736,99.342 229.695,94.871 229.660 C 86.766 229.596,86.738 229.593,85.371 228.551 L 84.000 227.505 84.000 224.000 L 84.000 220.495 85.371 219.449 L 86.742 218.404 94.821 218.418 C 99.265 218.426,103.013 218.319,103.150 218.179 C 103.786 217.533,106.562 218.400,107.848 219.647 " stroke="none" fill="#9c54bc" fill-rule="evenodd"></path><path id="path3" d="M177.220 161.595 C 176.460 161.780,175.646 162.172,175.410 162.466 C 175.175 162.760,174.626 163.200,174.191 163.444 C 173.006 164.108,173.175 165.681,174.500 166.316 L 175.600 166.844 175.600 178.041 L 175.600 189.238 174.600 190.165 C 171.985 192.588,173.605 194.000,179.000 194.000 C 184.403 194.000,186.015 192.589,183.391 190.157 L 182.382 189.221 182.491 181.911 L 182.600 174.600 184.704 174.243 C 185.969 174.029,187.324 174.034,188.104 174.258 L 189.400 174.629 189.510 181.803 C 189.611 188.474,189.562 189.054,188.810 190.073 C 187.901 191.301,187.758 192.798,188.480 193.520 C 189.082 194.122,196.524 194.176,197.626 193.586 C 198.647 193.039,198.658 191.026,197.644 190.316 C 196.956 189.834,196.875 189.088,196.744 181.993 L 196.600 174.200 195.400 172.700 C 194.740 171.875,193.975 171.200,193.700 171.200 C 193.425 171.200,192.840 170.840,192.400 170.400 C 191.194 169.194,184.322 169.205,183.475 170.414 C 182.722 171.490,182.400 170.050,182.400 165.599 C 182.400 161.668,181.084 160.651,177.220 161.595 M180.826 162.414 C 181.514 162.782,181.600 163.284,181.600 166.918 C 181.600 171.777,182.341 172.944,184.277 171.130 C 186.365 169.174,192.700 170.466,194.809 173.278 C 195.760 174.546,195.809 174.908,196.027 182.200 C 196.152 186.380,196.379 190.160,196.532 190.600 C 197.047 192.080,196.239 192.600,193.429 192.600 C 190.239 192.600,189.169 191.865,189.929 190.196 C 190.741 188.413,190.541 175.195,189.687 174.200 C 188.373 172.669,185.699 171.933,184.683 172.824 C 184.417 173.057,183.615 173.594,182.900 174.018 L 181.600 174.788 181.600 181.866 C 181.600 186.368,181.775 189.426,182.080 190.271 C 182.728 192.062,182.216 192.504,179.251 192.719 C 176.211 192.939,174.693 191.833,175.772 190.186 C 176.305 189.373,176.400 187.530,176.400 178.026 L 176.400 166.824 175.216 165.948 C 173.821 164.917,173.911 164.693,176.326 163.161 C 178.251 161.940,179.541 161.726,180.826 162.414 M147.400 163.489 C 145.429 163.974,144.818 167.346,146.357 169.246 L 147.114 170.181 148.804 168.490 C 150.438 166.856,150.579 166.800,153.047 166.800 L 155.600 166.800 155.600 177.946 C 155.600 188.486,155.557 189.147,154.800 190.109 C 153.902 191.251,153.757 192.797,154.480 193.520 C 155.074 194.114,162.284 194.176,163.799 193.600 C 165.179 193.076,165.113 190.825,163.700 190.205 L 162.800 189.810 162.800 178.305 L 162.800 166.800 166.010 166.800 L 169.220 166.800 169.456 167.980 C 170.142 171.409,172.284 170.482,172.687 166.581 C 173.048 163.082,173.474 163.192,159.824 163.246 C 153.431 163.272,147.840 163.381,147.400 163.489 M253.829 163.829 C 253.483 164.174,253.200 164.733,253.200 165.071 C 253.200 165.408,252.750 166.219,252.200 166.873 C 251.650 167.527,251.200 168.295,251.200 168.581 C 251.200 168.866,250.632 169.214,249.938 169.352 C 247.303 169.879,246.858 171.527,248.765 173.699 L 249.930 175.026 250.065 181.852 C 250.150 186.150,250.368 188.887,250.654 189.240 C 250.903 189.548,251.231 190.377,251.382 191.082 C 251.534 191.796,251.975 192.465,252.375 192.592 C 252.771 192.718,253.416 193.176,253.809 193.610 C 254.374 194.235,255.043 194.400,257.000 194.400 C 258.957 194.400,259.626 194.235,260.191 193.610 C 260.584 193.176,261.233 192.717,261.632 192.590 C 262.032 192.463,262.480 191.963,262.627 191.480 C 262.774 190.996,263.165 190.292,263.496 189.915 C 265.130 188.053,261.739 187.149,260.013 188.987 L 259.086 189.973 257.943 189.159 L 256.800 188.346 256.800 181.173 L 256.800 174.000 258.000 174.000 C 259.429 174.000,260.800 172.766,260.800 171.480 C 260.800 170.161,260.060 169.600,258.320 169.600 L 256.800 169.600 256.800 167.029 C 256.800 164.423,256.225 163.200,255.000 163.200 C 254.701 163.200,254.174 163.483,253.829 163.829 M113.091 164.400 C 112.466 164.891,111.468 165.200,110.505 165.200 C 109.624 165.200,108.072 165.638,106.968 166.198 C 105.786 166.798,103.735 167.356,101.835 167.595 C 100.094 167.815,98.384 168.246,98.035 168.554 C 97.686 168.862,96.107 169.241,94.526 169.395 C 92.426 169.600,91.301 169.935,90.349 170.638 C 89.471 171.285,88.508 171.600,87.407 171.600 C 86.506 171.600,85.105 171.938,84.294 172.352 C 83.482 172.766,81.470 173.231,79.821 173.385 C 77.911 173.564,76.493 173.924,75.912 174.378 C 75.410 174.770,73.740 175.306,72.200 175.570 C 70.660 175.834,69.040 176.283,68.600 176.566 C 68.160 176.850,66.668 177.281,65.285 177.524 C 60.665 178.335,58.519 181.710,60.346 185.293 C 61.619 187.791,61.728 189.157,60.692 189.641 C 57.297 191.230,56.374 196.935,59.100 199.481 C 63.067 203.186,62.646 202.061,62.937 209.736 C 63.080 213.511,63.199 220.200,63.201 224.600 C 63.205 232.971,63.533 235.322,64.791 235.995 C 65.629 236.444,124.575 236.585,126.782 236.144 C 129.842 235.532,129.879 235.302,130.165 215.000 C 130.453 194.521,130.592 195.493,127.315 195.047 C 123.151 194.480,116.517 194.295,105.900 194.450 C 103.865 194.479,99.860 194.476,97.000 194.442 C 94.140 194.408,90.180 194.399,88.200 194.422 C 83.168 194.481,76.291 193.884,76.123 193.374 C 76.038 193.117,77.340 192.766,79.408 192.490 C 81.716 192.181,83.173 191.765,83.871 191.216 C 84.485 190.733,85.504 190.400,86.369 190.400 C 87.173 190.400,88.483 190.067,89.281 189.661 C 90.079 189.254,92.052 188.801,93.666 188.654 C 95.531 188.484,96.966 188.118,97.606 187.651 C 98.160 187.246,99.870 186.696,101.406 186.429 C 102.943 186.161,104.506 185.665,104.881 185.326 C 105.318 184.931,106.776 184.616,108.948 184.447 C 111.217 184.271,112.576 183.968,113.067 183.529 C 113.470 183.168,114.837 182.746,116.106 182.590 C 117.374 182.434,118.829 181.978,119.339 181.577 C 119.849 181.175,121.477 180.636,122.956 180.378 C 127.414 179.602,129.000 177.495,127.423 174.444 C 127.105 173.830,126.630 172.092,126.367 170.581 C 125.898 167.884,124.448 164.532,123.487 163.922 C 122.329 163.186,114.157 163.562,113.091 164.400 M172.128 164.368 C 172.584 164.824,172.103 167.706,171.414 168.648 C 170.929 169.312,170.826 169.242,170.141 167.785 L 169.396 166.200 166.260 166.082 C 164.292 166.009,162.915 166.139,162.562 166.431 C 161.797 167.066,161.737 188.215,162.494 190.308 C 163.194 192.246,162.236 192.920,159.088 192.705 C 156.213 192.509,155.231 191.729,155.929 190.196 C 156.840 188.197,156.569 166.919,155.626 166.414 C 153.854 165.466,149.669 166.065,147.925 167.517 C 147.554 167.826,147.059 167.960,146.825 167.816 C 146.234 167.450,146.291 164.918,146.900 164.524 C 148.057 163.775,171.391 163.631,172.128 164.368 M256.200 164.944 C 256.306 165.415,256.439 166.790,256.496 168.000 C 256.599 170.185,256.610 170.201,258.000 170.400 C 259.813 170.659,259.917 171.750,258.146 171.922 C 256.498 172.082,256.400 172.634,256.400 181.722 L 256.400 188.943 257.725 190.172 L 259.051 191.400 259.859 190.432 C 260.402 189.782,260.896 189.551,261.362 189.730 C 262.312 190.095,262.041 191.747,261.000 191.939 C 260.560 192.020,259.878 192.427,259.484 192.843 C 258.034 194.377,253.128 193.221,251.892 191.054 C 251.567 190.485,251.358 187.509,251.267 182.145 L 251.130 174.089 249.765 172.766 C 248.021 171.076,248.043 170.925,250.164 170.016 C 251.171 169.584,252.040 168.904,252.191 168.430 C 252.335 167.973,252.614 167.600,252.809 167.600 C 253.004 167.600,253.284 166.961,253.430 166.180 C 253.892 163.716,255.738 162.893,256.200 164.944 M122.278 164.646 C 123.297 164.920,124.453 167.864,125.571 173.033 C 125.955 174.811,126.379 176.442,126.512 176.658 C 126.839 177.187,123.788 179.124,121.800 179.651 C 120.920 179.884,119.210 180.507,118.000 181.036 C 116.790 181.565,114.907 182.187,113.816 182.419 C 112.725 182.651,111.629 183.010,111.379 183.217 C 111.130 183.424,109.323 183.762,107.363 183.968 C 105.081 184.208,102.969 184.712,101.489 185.371 C 100.217 185.937,98.867 186.401,98.489 186.402 C 98.110 186.404,97.260 186.697,96.600 187.053 C 95.940 187.409,94.050 187.831,92.400 187.990 C 90.443 188.179,87.593 188.923,84.200 190.131 C 81.340 191.149,77.684 192.167,76.076 192.393 C 74.469 192.619,72.669 193.047,72.076 193.345 C 69.550 194.614,67.200 194.306,67.200 192.705 C 67.200 192.464,67.101 192.366,66.980 192.486 C 66.636 192.831,66.555 199.200,66.896 199.200 C 67.063 199.200,67.200 198.784,67.200 198.276 C 67.200 196.083,70.254 195.376,79.200 195.499 C 84.060 195.565,91.149 195.588,96.000 195.553 C 98.090 195.538,102.050 195.536,104.800 195.549 C 107.550 195.561,111.600 195.556,113.800 195.538 C 117.987 195.502,126.215 196.115,128.100 196.602 L 129.200 196.887 129.200 203.063 C 129.200 209.569,128.857 211.111,127.140 212.323 C 126.452 212.809,126.400 213.582,126.400 223.346 C 126.400 231.783,126.288 234.000,125.832 234.624 C 125.105 235.618,66.108 235.868,65.120 234.880 C 64.720 234.481,64.533 230.611,64.310 218.173 C 64.000 200.893,63.977 200.719,61.903 200.033 C 58.741 198.989,57.261 194.153,59.601 192.514 C 60.040 192.206,60.400 191.724,60.400 191.442 C 60.400 191.159,60.872 190.713,61.449 190.450 C 62.634 189.911,62.613 188.642,61.350 184.541 C 60.329 181.225,62.295 178.846,66.592 178.196 C 68.196 177.954,75.469 175.602,77.860 174.553 C 78.554 174.249,80.015 174.000,81.107 174.000 C 83.009 174.000,88.432 172.448,92.400 170.769 C 93.390 170.351,95.820 169.743,97.800 169.421 C 103.603 168.474,106.942 167.605,107.799 166.819 C 108.247 166.407,109.569 165.957,110.800 165.796 C 112.010 165.637,113.450 165.266,114.000 164.970 C 115.022 164.420,120.619 164.202,122.278 164.646 M207.507 170.400 C 207.232 170.840,206.593 171.200,206.086 171.200 C 205.267 171.200,204.730 171.633,202.596 174.011 C 201.806 174.891,201.202 176.656,201.187 178.126 C 201.180 178.827,200.910 179.749,200.587 180.176 C 199.828 181.181,199.834 182.965,200.600 183.600 C 200.930 183.874,201.200 184.712,201.200 185.462 C 201.200 188.161,203.932 192.067,206.222 192.641 C 206.824 192.792,207.650 193.250,208.058 193.658 C 209.184 194.784,215.857 194.742,217.309 193.600 C 217.869 193.160,218.522 192.800,218.762 192.800 C 219.755 192.800,222.472 189.727,222.336 188.759 C 222.142 187.392,220.252 187.224,218.939 188.457 C 217.355 189.945,210.400 190.073,210.400 188.615 C 210.400 188.302,210.064 187.810,209.654 187.523 C 208.706 186.859,207.839 183.151,208.528 182.712 C 208.788 182.547,211.813 182.409,215.251 182.406 C 222.559 182.399,222.533 182.412,222.533 178.716 C 222.533 176.695,222.384 176.155,221.667 175.574 C 221.190 175.188,220.800 174.572,220.800 174.205 C 220.800 173.359,218.666 171.200,217.831 171.200 C 217.484 171.200,216.840 170.840,216.400 170.400 C 215.712 169.712,215.067 169.600,211.803 169.600 C 208.440 169.600,207.950 169.691,207.507 170.400 M230.058 170.342 C 229.650 170.750,228.885 171.196,228.358 171.332 C 225.561 172.055,224.495 177.527,226.951 178.554 C 227.694 178.864,228.419 179.307,228.562 179.538 C 228.901 180.087,232.400 177.747,232.400 176.972 C 232.400 176.657,232.070 176.070,231.668 175.668 C 230.561 174.561,232.564 173.742,235.153 174.243 C 237.828 174.760,238.834 179.600,236.266 179.600 C 235.739 179.600,234.879 179.933,234.354 180.339 C 233.829 180.746,232.445 181.189,231.277 181.323 C 229.842 181.488,228.762 181.897,227.946 182.584 C 227.282 183.143,226.527 183.601,226.269 183.601 C 224.946 183.605,223.825 188.037,224.803 189.400 C 224.961 189.620,225.209 190.301,225.356 190.914 C 225.516 191.585,226.052 192.220,226.706 192.514 C 227.301 192.781,228.106 193.315,228.495 193.700 C 229.578 194.775,235.505 194.705,236.909 193.600 C 237.526 193.114,238.532 192.800,239.467 192.800 C 240.574 192.800,241.148 193.025,241.507 193.600 C 242.429 195.076,245.570 194.719,247.126 192.961 C 249.034 190.807,248.486 189.243,245.999 189.740 L 244.800 189.980 244.776 184.290 C 244.747 177.367,244.405 175.037,243.261 173.971 C 242.788 173.530,242.400 172.901,242.400 172.575 C 242.400 172.248,241.957 171.812,241.416 171.606 C 240.875 171.400,240.065 170.865,239.616 170.416 C 238.448 169.248,231.207 169.193,230.058 170.342 M271.507 170.400 C 271.232 170.840,270.593 171.200,270.086 171.200 C 268.308 171.200,265.539 174.975,265.288 177.739 C 265.186 178.872,264.858 180.080,264.559 180.423 C 264.103 180.945,264.103 181.170,264.556 181.823 C 264.853 182.250,265.178 183.752,265.278 185.159 C 265.421 187.169,265.647 187.870,266.330 188.424 C 266.808 188.811,267.200 189.396,267.200 189.723 C 267.200 190.452,269.805 192.800,270.614 192.800 C 270.936 192.800,271.560 193.160,272.000 193.600 C 273.186 194.786,280.406 194.794,281.590 193.610 C 282.024 193.176,282.849 192.703,283.422 192.559 C 283.995 192.415,284.573 192.005,284.706 191.649 C 284.839 191.292,285.284 190.758,285.696 190.461 C 286.179 190.114,286.402 189.545,286.323 188.861 C 286.153 187.391,284.309 187.170,282.939 188.457 C 281.355 189.945,274.400 190.073,274.400 188.615 C 274.400 188.302,274.071 187.810,273.668 187.523 C 272.661 186.804,271.891 182.927,272.694 182.619 C 273.008 182.499,276.019 182.400,279.384 182.400 C 286.321 182.400,286.299 182.409,286.650 179.342 C 286.902 177.146,286.319 175.200,285.410 175.200 C 285.059 175.200,284.800 174.847,284.800 174.369 C 284.800 173.395,282.744 171.200,281.831 171.200 C 281.484 171.200,280.840 170.840,280.400 170.400 C 279.712 169.712,279.067 169.600,275.803 169.600 C 272.440 169.600,271.950 169.691,271.507 170.400 M293.501 170.500 C 293.115 170.885,292.284 171.200,291.654 171.200 C 288.749 171.200,287.839 173.787,290.453 174.617 C 291.647 174.996,291.598 189.759,290.400 190.400 C 289.331 190.972,289.314 193.019,290.374 193.586 C 291.476 194.176,298.918 194.122,299.520 193.520 C 300.242 192.798,300.099 191.301,299.190 190.073 C 298.438 189.054,298.389 188.474,298.490 181.817 L 298.600 174.657 299.736 174.353 C 300.993 174.018,302.588 174.550,303.716 175.682 C 304.696 176.665,305.697 176.582,306.695 175.434 C 308.535 173.318,308.527 173.039,306.572 171.260 L 304.770 169.620 299.486 169.710 C 295.066 169.785,294.087 169.914,293.501 170.500 M216.662 171.444 C 218.697 172.345,219.039 172.680,221.013 175.718 C 222.055 177.321,222.299 179.494,221.586 180.826 C 221.203 181.542,220.690 181.600,214.760 181.600 C 206.493 181.600,206.019 181.832,207.600 185.106 C 208.040 186.016,208.400 186.915,208.400 187.102 C 208.400 190.426,217.130 191.670,220.039 188.761 C 220.714 188.086,220.959 188.034,221.468 188.456 C 222.014 188.910,221.996 189.036,221.300 189.600 C 220.870 189.948,220.313 190.614,220.064 191.081 C 219.772 191.627,219.048 192.023,218.028 192.195 C 217.158 192.342,216.234 192.718,215.974 193.031 C 214.743 194.515,207.960 193.292,205.164 191.082 C 199.855 186.887,200.282 174.056,205.800 171.979 C 206.460 171.730,207.450 171.325,208.000 171.077 C 208.550 170.830,209.360 170.504,209.800 170.354 C 211.073 169.918,214.410 170.449,216.662 171.444 M239.377 171.373 C 243.026 172.987,244.000 175.448,244.000 183.060 C 244.000 186.634,244.189 189.465,244.480 190.272 C 244.933 191.524,245.600 192.077,245.600 191.200 C 245.600 190.980,245.960 190.800,246.400 190.800 C 246.840 190.800,247.200 190.980,247.200 191.200 C 247.200 191.420,246.853 191.600,246.428 191.600 C 245.932 191.600,245.610 191.922,245.528 192.500 C 245.365 193.648,243.645 193.910,242.254 192.999 C 240.530 191.869,236.919 191.722,235.968 192.742 C 234.766 194.032,231.289 193.915,228.400 192.487 C 222.459 189.551,225.421 181.804,232.368 182.106 C 235.001 182.220,235.461 182.964,233.426 183.815 C 229.945 185.269,229.272 188.190,231.856 190.627 C 233.466 192.145,234.695 192.363,235.652 191.300 C 235.999 190.915,236.823 190.308,237.484 189.951 L 238.686 189.302 238.494 186.151 C 238.287 182.774,238.003 182.141,236.416 181.516 L 235.400 181.116 236.695 180.488 C 240.116 178.828,238.475 174.177,233.848 172.418 C 232.100 171.754,229.945 174.403,230.854 176.101 C 231.942 178.135,228.564 179.230,226.495 177.513 C 225.333 176.548,227.339 172.172,229.141 171.742 C 229.723 171.603,230.394 171.338,230.631 171.153 C 232.328 169.828,236.099 169.923,239.377 171.373 M280.796 171.558 C 282.205 172.226,283.316 173.102,283.895 174.000 C 284.391 174.770,285.068 175.752,285.399 176.181 C 286.090 177.079,286.195 179.688,285.586 180.826 C 285.203 181.541,284.691 181.600,278.875 181.600 C 273.973 181.600,272.391 181.731,271.736 182.190 L 270.893 182.780 271.759 185.171 C 273.018 188.646,275.449 190.800,278.114 190.800 C 279.506 190.800,283.358 189.437,284.125 188.673 C 285.577 187.226,286.193 188.637,284.830 190.290 C 280.590 195.434,271.225 194.483,267.174 188.496 C 264.044 183.869,265.703 173.582,269.839 171.974 C 270.367 171.768,271.295 171.381,271.900 171.114 C 272.505 170.846,273.360 170.504,273.800 170.354 C 275.154 169.890,278.490 170.464,280.796 171.558 M304.721 170.959 C 307.023 172.150,307.367 172.940,306.191 174.338 L 305.148 175.577 303.474 174.489 C 302.553 173.890,301.598 173.142,301.351 172.826 C 300.974 172.343,300.640 172.459,299.251 173.559 L 297.600 174.867 297.600 182.015 C 297.600 186.646,297.766 189.526,298.071 190.196 C 298.749 191.685,297.794 192.485,295.066 192.711 C 292.336 192.938,290.946 191.921,291.607 190.181 C 291.823 189.613,292.000 185.932,292.000 182.001 L 292.000 174.854 290.783 173.988 C 289.353 172.970,289.681 172.209,291.728 171.793 C 292.427 171.651,293.564 171.341,294.252 171.104 C 295.216 170.773,295.923 170.812,297.320 171.271 C 299.009 171.827,299.178 171.818,299.763 171.134 C 300.530 170.239,303.149 170.146,304.721 170.959 M209.555 173.500 C 205.568 177.751,206.472 180.000,212.170 180.000 C 215.055 180.000,215.111 179.980,215.603 178.793 C 216.229 177.282,215.857 174.770,214.909 174.107 C 214.519 173.834,213.780 173.248,213.266 172.805 C 211.930 171.653,211.151 171.799,209.555 173.500 M273.500 173.536 C 272.675 174.373,272.000 175.350,272.000 175.706 C 272.000 176.062,271.837 176.454,271.638 176.577 C 271.164 176.869,271.550 178.411,272.318 179.300 C 272.798 179.854,273.569 180.000,276.019 180.000 L 279.114 180.000 279.695 178.544 C 280.542 176.420,280.090 175.007,278.044 173.389 C 275.834 171.642,275.351 171.657,273.500 173.536 M215.182 176.500 L 215.200 178.000 212.024 178.000 C 210.208 178.000,208.734 177.817,208.584 177.574 C 208.142 176.859,208.785 174.400,209.415 174.400 C 209.733 174.400,210.199 174.071,210.450 173.669 C 211.325 172.268,215.159 174.562,215.182 176.500 M278.048 174.346 C 279.095 174.740,279.747 176.350,279.316 177.475 C 279.069 178.117,272.984 178.222,272.594 177.590 C 272.083 176.764,272.862 174.757,273.837 174.386 C 274.367 174.185,274.800 173.759,274.800 173.441 C 274.800 172.943,274.956 172.938,275.900 173.406 C 276.505 173.706,277.471 174.129,278.048 174.346 M237.415 183.717 C 237.541 184.221,237.590 185.706,237.522 187.016 L 237.400 189.400 235.687 189.759 C 233.015 190.321,230.800 189.518,230.800 187.987 C 230.800 186.665,232.830 184.400,234.015 184.400 C 234.398 184.400,235.136 184.046,235.656 183.613 C 236.880 182.593,237.137 182.608,237.415 183.717 M158.012 207.274 C 157.566 207.691,157.200 208.341,157.200 208.719 C 157.200 209.098,156.854 209.624,156.431 209.888 C 155.890 210.226,155.577 211.042,155.378 212.637 C 155.212 213.970,154.798 215.202,154.376 215.624 C 153.981 216.019,153.529 217.210,153.373 218.271 C 153.216 219.332,152.774 220.603,152.390 221.095 C 152.006 221.588,151.569 222.816,151.417 223.824 C 151.266 224.833,150.815 225.985,150.415 226.385 C 150.014 226.786,149.559 228.041,149.403 229.176 C 149.113 231.288,147.805 233.194,146.273 233.737 C 145.149 234.137,145.530 236.094,146.800 236.444 C 151.203 237.659,155.939 235.854,153.544 233.873 C 149.746 230.731,158.083 226.061,162.264 228.990 C 163.597 229.924,163.911 233.017,162.793 234.208 L 161.924 235.132 163.031 235.857 C 164.273 236.671,168.494 237.057,171.397 236.621 C 174.635 236.136,175.198 234.391,172.389 233.549 C 170.945 233.117,170.845 232.981,170.587 231.102 C 170.436 230.008,169.992 228.792,169.600 228.400 C 169.208 228.008,168.763 226.782,168.610 225.676 C 168.454 224.537,168.020 223.380,167.610 223.009 C 167.174 222.615,166.778 221.490,166.615 220.180 C 166.440 218.780,166.089 217.826,165.629 217.503 C 165.158 217.171,164.816 216.206,164.624 214.667 C 164.443 213.207,164.047 212.047,163.567 211.567 C 163.145 211.145,162.800 210.557,162.800 210.260 C 162.800 207.556,159.751 205.655,158.012 207.274 M161.307 208.300 C 161.654 208.685,162.067 209.540,162.226 210.200 C 162.384 210.860,162.833 212.038,163.223 212.819 C 163.614 213.599,164.064 214.949,164.225 215.819 C 164.385 216.688,164.833 217.808,165.221 218.308 C 165.610 218.807,166.050 220.108,166.200 221.200 C 166.350 222.292,166.790 223.593,167.179 224.092 C 167.567 224.592,168.012 225.695,168.168 226.543 C 168.325 227.392,168.783 228.832,169.186 229.743 C 169.590 230.655,170.116 231.899,170.355 232.508 C 170.594 233.117,171.225 233.781,171.756 233.983 C 174.500 235.027,172.616 236.166,168.114 236.186 C 164.231 236.203,163.132 235.598,164.046 233.947 C 164.334 233.426,164.509 232.820,164.434 232.600 C 164.360 232.380,164.085 231.390,163.824 230.400 C 162.581 225.693,152.653 226.482,152.107 231.331 C 151.928 232.913,152.038 233.389,152.759 234.157 C 154.050 235.531,153.028 236.209,149.723 236.171 C 146.012 236.128,145.318 235.311,147.658 233.740 C 149.147 232.739,149.450 232.289,149.852 230.483 C 150.108 229.330,150.583 227.980,150.908 227.484 C 151.233 226.988,151.627 225.827,151.783 224.903 C 151.939 223.979,152.395 222.806,152.796 222.296 C 153.197 221.786,153.653 220.518,153.809 219.479 C 153.965 218.441,154.417 217.178,154.813 216.674 C 155.210 216.170,155.653 215.047,155.799 214.179 C 156.618 209.298,159.466 206.258,161.307 208.300 M174.935 213.555 C 171.804 214.100,171.395 215.321,173.984 216.393 C 174.893 216.770,175.199 217.210,175.407 218.439 C 175.552 219.300,175.992 220.229,176.385 220.504 C 176.827 220.814,177.206 221.789,177.382 223.070 C 177.550 224.289,177.973 225.414,178.416 225.814 C 178.828 226.187,179.284 227.286,179.429 228.256 C 179.577 229.241,180.004 230.238,180.396 230.512 C 180.826 230.813,181.208 231.805,181.382 233.070 C 182.081 238.151,187.854 237.717,188.632 232.524 C 188.783 231.517,189.230 230.370,189.625 229.975 C 190.019 229.581,190.464 228.446,190.613 227.453 C 190.762 226.460,191.222 225.342,191.635 224.968 C 192.069 224.576,192.495 223.474,192.642 222.368 C 192.782 221.312,193.140 220.355,193.438 220.241 C 193.736 220.126,194.186 219.215,194.438 218.216 C 194.765 216.917,195.097 216.400,195.603 216.400 C 195.993 216.400,196.724 216.066,197.229 215.657 L 198.146 214.914 197.102 214.230 C 195.645 213.275,190.390 213.253,188.952 214.195 L 187.924 214.868 188.793 215.792 C 189.847 216.915,189.602 219.912,188.365 221.032 C 187.929 221.427,187.504 222.529,187.355 223.656 C 186.970 226.560,185.047 226.607,184.651 223.723 C 184.502 222.631,184.030 221.458,183.525 220.920 C 182.813 220.163,182.650 219.491,182.624 217.214 C 182.607 215.684,182.414 214.261,182.196 214.051 C 181.648 213.524,176.955 213.203,174.935 213.555 M204.218 213.491 C 202.764 213.861,199.657 216.828,199.374 218.119 C 199.225 218.796,198.777 219.631,198.377 219.975 C 197.152 221.030,197.138 228.738,198.359 229.959 C 198.777 230.377,199.239 231.265,199.385 231.932 C 199.867 234.124,203.820 236.800,206.577 236.800 C 207.306 236.800,208.122 237.065,208.391 237.389 C 208.822 237.909,209.016 237.909,210.020 237.389 C 210.647 237.065,211.862 236.800,212.720 236.800 C 214.690 236.800,216.800 236.080,216.800 235.408 C 216.800 235.125,217.152 234.801,217.582 234.689 C 218.638 234.413,219.093 232.522,218.296 231.725 C 217.530 230.959,215.571 231.327,214.579 232.423 C 213.630 233.472,208.400 233.590,208.400 232.563 C 208.400 232.212,208.048 231.833,207.617 231.720 C 207.179 231.606,206.642 230.932,206.397 230.190 C 206.156 229.461,205.698 228.648,205.380 228.383 C 205.056 228.114,204.800 227.217,204.800 226.351 L 204.800 224.800 211.140 224.800 C 217.728 224.800,219.807 224.437,220.194 223.219 C 220.441 222.440,219.875 220.617,219.270 220.243 C 219.061 220.114,218.779 219.413,218.642 218.685 C 217.869 214.561,210.479 211.900,204.218 213.491 M225.908 213.562 C 224.948 213.761,223.895 214.424,222.956 215.420 L 221.496 216.968 222.748 218.013 L 224.000 219.058 224.000 226.129 C 224.000 230.018,223.854 233.200,223.675 233.200 C 222.990 233.200,221.638 234.833,221.855 235.399 C 222.465 236.989,231.520 237.320,233.186 235.813 C 234.147 234.943,233.456 233.750,231.858 233.522 C 231.021 233.403,230.997 233.220,230.891 226.127 L 230.782 218.854 231.809 217.827 C 233.027 216.609,237.600 216.254,237.600 217.377 C 237.600 217.695,237.964 218.210,238.409 218.522 C 239.699 219.425,239.451 233.336,238.142 233.522 C 236.525 233.753,235.854 234.944,236.839 235.835 C 238.122 236.997,246.304 236.973,247.596 235.804 L 248.475 235.008 247.276 234.004 L 246.077 233.000 245.938 227.161 C 245.855 223.663,245.620 221.096,245.352 220.761 C 245.106 220.452,244.813 219.339,244.700 218.287 C 244.534 216.734,244.207 216.093,242.965 214.887 L 241.435 213.400 237.018 213.406 C 234.588 213.409,232.150 213.466,231.600 213.533 C 231.050 213.600,229.880 213.565,229.000 213.454 C 228.120 213.344,226.729 213.392,225.908 213.562 M251.145 213.548 C 247.913 214.034,247.298 216.400,250.404 216.400 C 251.064 216.400,251.130 217.049,251.260 224.747 L 251.400 233.095 253.102 234.797 C 254.471 236.165,255.159 236.539,256.612 236.702 C 257.605 236.814,258.515 237.062,258.633 237.253 C 258.944 237.756,260.961 237.679,261.497 237.143 C 261.785 236.855,263.780 236.670,266.894 236.643 C 272.520 236.594,273.728 236.147,274.214 233.935 C 274.455 232.838,274.340 232.516,273.449 231.806 L 272.400 230.970 272.400 222.947 C 272.400 213.254,272.472 213.404,267.864 213.444 C 263.713 213.481,261.692 214.930,264.200 216.073 L 265.200 216.528 265.200 224.384 C 265.200 233.501,265.325 233.200,261.544 233.200 C 258.069 233.200,258.249 233.682,258.007 223.711 C 257.749 213.110,257.408 212.606,251.145 213.548 M282.300 213.644 C 281.695 213.877,281.200 214.322,281.200 214.633 C 281.200 214.945,280.939 215.200,280.620 215.200 C 279.786 215.200,277.664 217.600,277.388 218.855 C 277.259 219.442,276.804 220.608,276.377 221.446 C 275.395 223.371,275.393 225.146,276.369 227.526 C 276.792 228.557,277.243 230.030,277.371 230.800 C 277.606 232.220,279.640 234.800,280.524 234.800 C 280.790 234.800,281.228 235.153,281.498 235.585 C 281.831 236.118,282.633 236.456,283.987 236.636 C 285.087 236.782,286.190 237.147,286.439 237.447 C 286.883 237.982,288.510 237.846,289.400 237.199 C 289.620 237.039,290.863 236.804,292.162 236.677 C 295.243 236.375,298.259 233.805,297.496 232.132 C 296.942 230.916,293.200 231.347,293.200 232.627 C 293.200 233.631,286.928 233.435,286.606 232.420 C 286.470 231.992,286.027 231.536,285.621 231.407 C 285.170 231.264,284.781 230.626,284.620 229.764 C 284.474 228.989,284.005 228.005,283.578 227.578 C 283.150 227.150,282.800 226.350,282.800 225.800 L 282.800 224.800 289.574 224.800 C 297.904 224.800,298.400 224.654,298.400 222.210 C 298.400 220.966,298.163 220.163,297.641 219.641 C 297.223 219.223,296.766 218.355,296.625 217.712 C 296.468 217.000,295.632 215.927,294.488 214.971 L 292.609 213.400 288.004 213.311 C 285.472 213.262,282.905 213.412,282.300 213.644 M229.649 214.026 C 230.087 214.261,230.606 214.846,230.802 215.326 L 231.159 216.200 231.419 215.328 C 231.774 214.136,232.225 214.023,236.865 213.967 L 240.906 213.918 242.452 215.464 C 244.304 217.316,244.770 219.819,244.784 228.000 L 244.793 233.000 246.068 234.048 L 247.342 235.096 246.371 235.621 C 245.297 236.202,240.424 236.374,238.700 235.892 C 237.329 235.509,237.283 234.673,238.600 234.073 L 239.600 233.617 239.600 226.098 L 239.600 218.578 238.423 217.289 C 237.104 215.845,231.600 215.250,231.600 216.551 C 231.600 216.854,231.330 217.326,231.000 217.600 C 230.504 218.011,230.400 219.448,230.400 225.858 L 230.400 233.617 231.400 234.073 C 232.717 234.673,232.671 235.509,231.300 235.892 C 229.576 236.374,224.703 236.202,223.629 235.621 L 222.658 235.096 223.932 234.048 L 225.207 233.000 225.204 225.786 L 225.200 218.572 223.969 217.845 L 222.738 217.118 223.669 216.122 C 224.775 214.939,225.773 214.364,227.400 213.971 C 228.060 213.812,228.657 213.663,228.726 213.641 C 228.796 213.618,229.211 213.792,229.649 214.026 M293.526 215.332 C 294.792 216.240,295.610 217.281,296.407 219.000 C 298.837 224.236,298.885 224.199,289.639 224.199 L 282.600 224.200 282.470 225.569 C 282.313 227.208,284.001 230.818,285.756 232.600 C 287.358 234.226,292.485 234.411,294.093 232.901 C 295.818 231.280,296.735 232.592,295.123 234.373 C 292.988 236.733,284.415 237.211,282.104 235.100 C 281.682 234.715,281.156 234.400,280.935 234.400 C 279.915 234.400,278.043 231.245,277.594 228.769 C 277.340 227.368,276.978 225.932,276.789 225.580 C 275.235 222.675,280.373 214.456,284.071 213.932 C 287.509 213.444,291.775 214.076,293.526 215.332 M180.970 214.389 C 181.894 214.740,181.948 214.876,181.531 215.792 C 181.187 216.547,181.184 217.037,181.518 217.703 C 181.765 218.197,182.155 219.344,182.386 220.253 C 182.617 221.163,183.074 222.130,183.403 222.402 C 183.731 222.675,184.001 223.101,184.002 223.349 C 184.021 227.081,187.051 228.269,187.731 224.811 C 187.924 223.827,188.404 222.613,188.796 222.114 C 189.189 221.615,189.636 220.530,189.791 219.703 C 189.945 218.877,190.267 217.963,190.507 217.674 C 190.827 217.286,190.762 216.843,190.260 215.994 C 189.173 214.154,191.896 213.308,195.197 214.459 L 196.514 214.918 195.484 215.457 C 194.918 215.754,194.329 216.402,194.175 216.898 C 194.021 217.394,193.584 218.250,193.203 218.800 C 192.822 219.350,192.381 220.510,192.223 221.379 C 192.064 222.247,191.609 223.370,191.212 223.875 C 190.815 224.380,190.365 225.464,190.211 226.283 C 190.057 227.103,189.612 228.229,189.221 228.786 C 188.830 229.344,188.387 230.481,188.235 231.312 C 187.174 237.132,182.993 237.578,181.796 232.000 C 181.631 231.230,181.159 230.171,180.748 229.646 C 180.337 229.121,179.998 228.401,179.996 228.046 C 179.994 227.691,179.564 226.480,179.040 225.355 C 178.516 224.230,177.954 222.700,177.792 221.955 C 177.629 221.210,177.172 220.187,176.776 219.681 C 176.379 219.176,175.937 218.225,175.793 217.568 C 175.649 216.911,175.077 216.076,174.522 215.712 C 172.441 214.349,177.912 213.226,180.970 214.389 M214.640 215.146 C 217.124 216.970,217.892 218.040,218.554 220.598 C 219.488 224.205,219.437 224.230,211.462 224.066 C 203.948 223.910,203.708 224.003,204.168 226.902 C 205.078 232.643,212.144 236.234,215.791 232.809 C 216.348 232.285,217.023 232.000,217.380 232.137 C 219.264 232.860,215.877 235.972,213.123 236.047 C 212.176 236.073,210.860 236.215,210.200 236.361 C 204.778 237.566,199.828 233.531,198.385 226.730 C 197.654 223.285,199.407 217.833,201.793 216.130 C 202.355 215.728,203.199 215.085,203.669 214.700 C 205.260 213.395,212.666 213.696,214.640 215.146 M256.051 214.661 C 256.458 215.151,256.652 217.343,256.800 223.161 C 257.064 233.495,257.183 233.748,261.877 233.915 L 265.111 234.031 265.555 232.756 C 266.459 230.163,266.134 216.795,265.142 215.738 L 264.284 214.824 265.368 214.412 C 270.633 212.410,271.600 213.966,271.600 224.441 L 271.600 231.582 272.597 232.235 C 274.672 233.594,272.125 236.078,268.653 236.079 C 267.524 236.079,265.520 236.098,264.200 236.121 C 255.232 236.276,255.768 236.356,254.011 234.597 C 251.958 232.542,251.600 230.722,251.600 222.337 L 251.600 215.983 250.546 215.502 L 249.491 215.022 250.646 214.529 C 252.372 213.792,255.390 213.866,256.051 214.661 M205.813 217.470 C 202.678 220.892,203.559 222.062,209.160 221.913 C 213.944 221.786,214.633 221.194,212.835 218.762 C 212.376 218.141,212.000 217.451,212.000 217.230 C 212.000 215.417,207.535 215.590,205.813 217.470 M285.718 216.340 C 284.642 216.657,282.285 220.108,282.474 221.090 C 282.656 222.044,290.783 222.384,291.542 221.470 C 293.537 219.066,289.258 215.296,285.718 216.340 M211.555 218.226 C 211.839 219.010,212.325 219.750,212.635 219.869 C 214.604 220.624,213.032 221.200,209.000 221.200 L 204.800 221.200 204.800 220.000 C 204.800 219.192,204.999 218.800,205.409 218.800 C 205.743 218.800,206.222 218.350,206.473 217.800 C 207.283 216.022,210.867 216.323,211.555 218.226 M289.600 217.386 C 289.600 217.708,289.960 218.165,290.400 218.400 C 290.924 218.680,291.200 219.238,291.200 220.014 L 291.200 221.200 287.000 221.200 C 282.497 221.200,282.438 221.181,283.500 220.063 C 283.885 219.657,284.507 218.757,284.881 218.063 C 285.652 216.634,289.600 216.068,289.600 217.386 M156.880 217.680 C 156.616 217.944,156.400 218.478,156.400 218.866 C 156.400 219.254,156.111 220.422,155.759 221.461 C 154.979 223.756,155.514 224.400,158.200 224.400 C 160.731 224.400,161.423 223.715,160.643 221.982 C 160.301 221.222,159.829 219.835,159.595 218.900 C 159.148 217.115,157.973 216.587,156.880 217.680 M159.443 220.788 C 159.870 223.370,159.735 223.600,157.791 223.600 C 156.031 223.600,155.992 219.021,157.749 218.676 C 158.217 218.584,158.701 218.484,158.824 218.454 C 158.947 218.425,159.225 219.475,159.443 220.788 " stroke="none" fill="#666169" fill-rule="evenodd"></path><path id="path4" d="M176.326 163.161 C 173.911 164.693,173.821 164.917,175.216 165.948 L 176.400 166.824 176.400 178.026 C 176.400 187.530,176.305 189.373,175.772 190.186 C 174.693 191.833,176.211 192.939,179.251 192.719 C 182.216 192.504,182.728 192.062,182.080 190.271 C 181.775 189.426,181.600 186.368,181.600 181.866 L 181.600 174.788 182.900 174.018 C 183.615 173.594,184.417 173.057,184.683 172.824 C 185.699 171.933,188.373 172.669,189.687 174.200 C 190.541 175.195,190.741 188.413,189.929 190.196 C 189.169 191.865,190.239 192.600,193.429 192.600 C 196.239 192.600,197.047 192.080,196.532 190.600 C 196.379 190.160,196.152 186.380,196.027 182.200 C 195.809 174.908,195.760 174.546,194.809 173.278 C 192.700 170.466,186.365 169.174,184.277 171.130 C 182.341 172.944,181.600 171.777,181.600 166.918 C 181.600 161.571,180.297 160.643,176.326 163.161 M180.487 167.128 L 180.600 171.370 181.959 172.285 C 182.781 172.839,183.062 173.200,182.668 173.200 C 180.624 173.200,179.255 186.626,180.963 189.929 C 181.725 191.402,181.072 192.005,178.726 191.994 C 176.542 191.984,176.064 191.456,176.900 189.975 C 177.519 188.878,177.600 187.475,177.600 177.798 L 177.600 166.861 176.461 165.930 L 175.322 165.000 177.074 163.741 C 179.951 161.673,180.352 162.071,180.487 167.128 M152.600 164.000 C 146.703 164.227,146.400 164.334,146.400 166.200 C 146.400 167.795,146.985 168.299,147.925 167.517 C 149.669 166.065,153.854 165.466,155.626 166.414 C 156.569 166.919,156.840 188.197,155.929 190.196 C 155.231 191.729,156.213 192.509,159.088 192.705 C 162.236 192.920,163.194 192.246,162.494 190.308 C 161.737 188.215,161.797 167.066,162.562 166.431 C 162.915 166.139,164.292 166.009,166.260 166.082 L 169.396 166.200 170.141 167.785 C 170.826 169.242,170.929 169.312,171.414 168.648 C 172.103 167.706,172.584 164.824,172.128 164.368 C 171.703 163.943,159.881 163.720,152.600 164.000 M254.260 164.197 C 253.950 164.507,253.577 165.400,253.430 166.180 C 253.284 166.961,253.004 167.600,252.809 167.600 C 252.614 167.600,252.335 167.973,252.191 168.430 C 252.040 168.904,251.171 169.584,250.164 170.016 C 248.043 170.925,248.021 171.076,249.765 172.766 L 251.130 174.089 251.267 182.145 C 251.358 187.509,251.567 190.485,251.892 191.054 C 253.128 193.221,258.034 194.377,259.484 192.843 C 259.878 192.427,260.560 192.020,261.000 191.939 C 262.041 191.747,262.312 190.095,261.362 189.730 C 260.896 189.551,260.402 189.782,259.859 190.432 L 259.051 191.400 257.725 190.172 L 256.400 188.943 256.400 181.722 C 256.400 172.634,256.498 172.082,258.146 171.922 C 259.917 171.750,259.813 170.659,258.000 170.400 C 256.610 170.201,256.599 170.185,256.496 168.000 C 256.314 164.138,255.576 162.882,254.260 164.197 M114.000 164.984 C 113.450 165.290,111.978 165.660,110.730 165.806 C 108.569 166.059,105.970 167.600,107.705 167.600 C 108.050 167.600,108.394 167.419,108.467 167.199 C 108.541 166.978,110.041 166.543,111.800 166.231 C 113.560 165.920,115.540 165.382,116.200 165.035 L 117.400 164.405 116.200 164.417 C 115.540 164.423,114.550 164.679,114.000 164.984 M171.768 164.835 C 171.884 164.950,171.792 165.720,171.564 166.545 L 171.150 168.044 170.261 166.722 C 169.061 164.939,163.793 164.504,162.145 166.052 L 161.200 166.939 161.200 177.844 C 161.200 184.298,161.367 189.186,161.609 189.823 C 162.161 191.275,161.502 192.000,159.627 192.000 C 157.446 192.000,156.499 191.180,157.116 189.825 C 157.457 189.076,157.600 185.521,157.600 177.775 L 157.600 166.788 156.300 165.996 C 154.838 165.104,152.047 164.947,150.051 165.642 C 148.734 166.101,147.015 165.409,147.984 164.810 C 148.481 164.503,171.460 164.527,171.768 164.835 M255.770 167.300 C 256.104 171.021,256.104 171.090,255.774 178.244 C 255.438 185.532,255.768 189.368,256.821 190.421 C 258.339 191.939,256.309 192.874,253.787 191.820 C 252.077 191.106,252.322 192.468,252.041 182.125 L 251.800 173.250 250.662 172.064 L 249.525 170.878 250.426 170.592 C 251.692 170.190,253.996 167.572,253.998 166.533 C 254.005 163.173,255.456 163.801,255.770 167.300 M96.400 169.652 C 95.190 169.848,93.120 170.446,91.800 170.979 C 90.480 171.512,89.130 172.045,88.800 172.163 C 88.470 172.281,89.100 172.273,90.200 172.145 C 91.300 172.018,92.614 171.653,93.120 171.334 C 93.626 171.016,95.497 170.499,97.278 170.186 C 99.059 169.873,100.610 169.523,100.725 169.408 C 101.018 169.115,98.996 169.229,96.400 169.652 M209.800 170.354 C 209.360 170.504,208.550 170.830,208.000 171.077 C 207.450 171.325,206.460 171.730,205.800 171.979 C 200.282 174.056,199.855 186.887,205.164 191.082 C 207.960 193.292,214.743 194.515,215.974 193.031 C 216.234 192.718,217.158 192.342,218.028 192.195 C 219.048 192.023,219.772 191.627,220.064 191.081 C 220.313 190.614,220.870 189.948,221.300 189.600 C 221.996 189.036,222.014 188.910,221.468 188.456 C 220.959 188.034,220.714 188.086,220.039 188.761 C 217.130 191.670,208.400 190.426,208.400 187.102 C 208.400 186.915,208.040 186.016,207.600 185.106 C 206.019 181.832,206.493 181.600,214.760 181.600 C 220.690 181.600,221.203 181.542,221.586 180.826 C 222.601 178.930,222.064 177.096,219.380 173.280 C 218.097 171.456,212.010 169.597,209.800 170.354 M232.631 170.431 C 231.769 170.643,230.869 170.968,230.631 171.153 C 230.394 171.338,229.723 171.603,229.141 171.742 C 227.339 172.172,225.333 176.548,226.495 177.513 C 228.564 179.230,231.942 178.135,230.854 176.101 C 229.945 174.403,232.100 171.754,233.848 172.418 C 238.475 174.177,240.116 178.828,236.695 180.488 L 235.400 181.116 236.416 181.516 C 238.003 182.141,238.287 182.774,238.494 186.151 L 238.686 189.302 237.484 189.951 C 236.823 190.308,235.999 190.915,235.652 191.300 C 234.695 192.363,233.466 192.145,231.856 190.627 C 229.272 188.190,229.945 185.269,233.426 183.815 C 235.461 182.964,235.001 182.220,232.368 182.106 C 225.421 181.804,222.459 189.551,228.400 192.487 C 231.289 193.915,234.766 194.032,235.968 192.742 C 236.919 191.722,240.530 191.869,242.254 192.999 C 243.645 193.910,245.365 193.648,245.528 192.500 C 245.610 191.922,245.932 191.600,246.428 191.600 C 246.853 191.600,247.200 191.420,247.200 191.200 C 247.200 190.980,246.840 190.800,246.400 190.800 C 245.960 190.800,245.600 190.980,245.600 191.200 C 245.600 192.077,244.933 191.524,244.480 190.272 C 244.189 189.465,244.000 186.634,244.000 183.060 C 244.000 173.123,239.958 168.633,232.631 170.431 M273.800 170.354 C 273.360 170.504,272.505 170.846,271.900 171.114 C 271.295 171.381,270.367 171.768,269.839 171.974 C 265.703 173.582,264.044 183.869,267.174 188.496 C 271.225 194.483,280.590 195.434,284.830 190.290 C 286.193 188.637,285.577 187.226,284.125 188.673 C 283.358 189.437,279.506 190.800,278.114 190.800 C 275.449 190.800,273.018 188.646,271.759 185.171 L 270.893 182.780 271.736 182.190 C 272.391 181.731,273.973 181.600,278.875 181.600 C 284.691 181.600,285.203 181.541,285.586 180.826 C 286.195 179.688,286.090 177.079,285.399 176.181 C 285.068 175.752,284.391 174.770,283.895 174.000 C 282.365 171.626,276.389 169.468,273.800 170.354 M299.763 171.134 C 299.178 171.818,299.009 171.827,297.320 171.271 C 295.923 170.812,295.216 170.773,294.252 171.104 C 293.564 171.341,292.427 171.651,291.728 171.793 C 289.681 172.209,289.353 172.970,290.783 173.988 L 292.000 174.854 292.000 182.001 C 292.000 185.932,291.823 189.613,291.607 190.181 C 290.946 191.921,292.336 192.938,295.066 192.711 C 297.794 192.485,298.749 191.685,298.071 190.196 C 297.766 189.526,297.600 186.646,297.600 182.015 L 297.600 174.867 299.251 173.559 C 300.640 172.459,300.974 172.343,301.351 172.826 C 301.598 173.142,302.553 173.890,303.474 174.489 L 305.148 175.577 306.191 174.338 C 307.198 173.142,307.209 173.073,306.517 172.309 C 304.757 170.363,300.985 169.707,299.763 171.134 M187.900 171.076 C 187.515 171.176,186.885 171.176,186.500 171.076 C 186.115 170.975,186.430 170.893,187.200 170.893 C 187.970 170.893,188.285 170.975,187.900 171.076 M235.636 171.169 C 235.326 171.365,234.831 171.433,234.536 171.320 C 233.690 170.996,233.906 170.799,235.100 170.806 C 235.901 170.811,236.047 170.909,235.636 171.169 M193.500 172.495 C 193.775 172.717,194.000 173.124,194.000 173.400 C 194.000 173.676,194.270 174.126,194.600 174.400 C 195.091 174.808,195.200 176.155,195.200 181.823 C 195.200 185.632,195.384 189.232,195.609 189.823 C 196.161 191.275,195.502 192.000,193.627 192.000 C 191.360 192.000,190.531 191.214,191.171 189.671 C 192.139 187.332,191.611 175.695,190.463 174.086 C 188.947 171.961,191.304 170.726,193.500 172.495 M297.080 172.208 L 298.535 172.816 297.467 173.930 L 296.400 175.044 296.400 181.903 C 296.400 186.419,296.565 189.125,296.884 189.825 C 297.499 191.174,296.556 192.000,294.404 192.000 C 292.488 192.000,291.984 191.451,292.440 189.862 C 292.638 189.171,292.800 185.512,292.800 181.732 L 292.800 174.858 291.512 173.850 C 290.108 172.751,290.155 172.695,293.000 172.046 C 295.280 171.525,295.464 171.533,297.080 172.208 M305.912 172.567 C 306.327 172.960,306.282 173.183,305.678 173.729 C 304.438 174.852,301.512 173.021,302.681 171.853 C 303.060 171.473,305.276 171.963,305.912 172.567 M208.624 172.587 C 209.051 172.910,209.190 173.180,208.934 173.187 C 207.888 173.216,206.356 176.885,206.430 179.187 C 206.469 180.404,206.383 181.940,206.240 182.600 C 206.074 183.362,206.193 184.165,206.566 184.800 C 206.888 185.350,207.437 186.418,207.786 187.174 C 208.401 188.505,210.607 190.800,211.272 190.800 C 211.964 190.800,211.557 191.637,210.667 192.042 C 208.491 193.034,205.384 191.217,203.357 187.768 C 201.636 184.841,201.605 177.661,203.303 175.642 C 203.906 174.925,204.400 174.170,204.400 173.963 C 204.400 172.756,207.508 171.743,208.624 172.587 M213.266 172.805 C 213.780 173.248,214.519 173.834,214.909 174.107 C 215.857 174.770,216.229 177.282,215.603 178.793 C 214.709 180.952,207.200 180.381,207.200 178.155 C 207.200 174.555,211.202 171.026,213.266 172.805 M218.618 173.500 C 219.376 174.325,219.997 175.203,219.998 175.451 C 219.999 175.699,220.279 176.134,220.620 176.416 C 222.074 177.623,221.210 180.185,219.302 180.323 C 217.355 180.464,217.037 180.033,216.592 176.651 C 216.415 175.305,216.026 174.415,215.332 173.772 C 214.135 172.663,214.401 172.000,216.044 172.000 C 216.915 172.000,217.615 172.408,218.618 173.500 M240.130 172.441 C 242.178 173.374,243.150 176.703,243.332 183.400 C 243.421 186.700,243.628 189.983,243.792 190.695 C 244.186 192.412,243.668 192.559,240.328 191.674 C 238.020 191.063,237.774 190.914,238.528 190.583 C 239.795 190.026,240.049 183.604,238.866 182.004 C 238.129 181.007,238.127 180.931,238.808 180.089 C 239.844 178.810,238.827 174.523,237.255 173.541 C 235.423 172.397,237.929 171.438,240.130 172.441 M273.200 172.551 C 273.200 172.854,272.939 173.319,272.620 173.583 C 271.035 174.899,269.906 179.001,270.758 180.346 C 270.968 180.677,270.899 181.290,270.582 181.899 C 270.035 182.954,270.060 183.071,271.583 186.584 C 272.369 188.395,274.473 190.800,275.272 190.800 C 275.964 190.800,275.557 191.637,274.667 192.042 C 272.159 193.185,268.914 190.872,266.751 186.400 C 265.633 184.090,266.103 177.596,267.537 175.514 C 269.625 172.487,273.200 170.616,273.200 172.551 M278.044 173.389 C 280.090 175.007,280.542 176.420,279.695 178.544 L 279.114 180.000 276.019 180.000 C 273.569 180.000,272.798 179.854,272.318 179.300 C 271.550 178.411,271.164 176.869,271.638 176.577 C 271.837 176.454,272.000 176.062,272.000 175.706 C 272.000 174.866,274.808 172.015,275.644 172.007 C 275.998 172.003,277.078 172.625,278.044 173.389 M282.318 173.100 C 285.930 176.503,286.511 180.400,283.406 180.400 C 281.523 180.400,280.551 179.515,281.038 178.245 C 281.367 177.389,280.466 174.780,279.461 173.679 C 277.817 171.876,280.452 171.342,282.318 173.100 M230.179 172.766 C 230.304 172.968,230.247 173.553,230.054 174.066 C 229.849 174.610,229.854 175.406,230.065 175.972 C 230.629 177.485,229.636 178.278,228.016 177.607 C 226.740 177.078,226.689 176.725,227.589 174.600 C 227.775 174.160,228.028 173.485,228.151 173.100 C 228.386 172.367,229.789 172.136,230.179 172.766 M78.000 174.494 C 77.450 174.738,76.100 175.257,75.000 175.648 L 73.000 176.358 75.000 176.133 C 76.100 176.009,77.610 175.626,78.356 175.282 C 79.101 174.938,80.361 174.529,81.156 174.374 L 82.600 174.092 80.800 174.071 C 79.810 174.060,78.550 174.250,78.000 174.494 M117.141 180.809 C 116.779 181.021,115.225 181.458,113.687 181.782 C 112.150 182.105,110.196 182.636,109.346 182.961 C 108.496 183.286,107.440 183.647,107.000 183.763 C 106.560 183.879,107.268 183.884,108.574 183.775 C 109.879 183.665,111.151 183.406,111.401 183.199 C 111.650 182.992,112.832 182.616,114.027 182.363 C 116.215 181.899,119.516 180.440,118.400 180.430 C 118.070 180.427,117.504 180.597,117.141 180.809 M233.380 182.768 C 233.505 182.970,232.965 183.348,232.179 183.607 C 229.999 184.326,228.995 188.626,230.594 190.393 C 231.735 191.654,231.351 192.121,229.359 191.897 C 225.329 191.442,224.468 185.404,228.238 184.041 C 229.081 183.736,230.015 183.242,230.314 182.943 C 230.928 182.329,233.034 182.208,233.380 182.768 M98.600 185.694 C 97.720 185.910,96.322 186.366,95.492 186.707 C 94.663 187.049,93.313 187.459,92.492 187.618 L 91.000 187.908 92.800 187.940 C 93.823 187.959,95.291 187.639,96.200 187.200 C 97.080 186.775,98.094 186.421,98.454 186.414 C 98.814 186.406,99.714 186.137,100.454 185.816 C 102.001 185.144,101.086 185.084,98.600 185.694 M82.200 190.011 C 81.540 190.191,80.190 190.622,79.200 190.967 C 78.210 191.312,76.569 191.693,75.554 191.814 C 74.539 191.934,73.369 192.309,72.954 192.646 C 72.539 192.983,72.407 193.157,72.659 193.031 C 72.912 192.906,74.473 192.615,76.128 192.385 C 79.153 191.964,86.269 189.620,84.400 189.660 C 83.850 189.672,82.860 189.830,82.200 190.011 M219.400 190.800 C 219.550 191.042,219.046 191.184,218.124 191.160 C 216.772 191.125,216.713 191.084,217.600 190.800 C 219.004 190.350,219.122 190.350,219.400 190.800 M283.383 190.772 C 283.749 191.365,282.934 191.649,281.733 191.347 C 280.739 191.098,280.707 191.040,281.415 190.763 C 282.511 190.335,283.114 190.338,283.383 190.772 M74.400 195.600 C 72.718 195.954,73.279 196.008,79.000 196.043 C 84.562 196.078,85.380 196.002,83.800 195.600 C 82.277 195.212,76.241 195.212,74.400 195.600 M92.000 195.600 C 90.748 196.001,91.038 196.031,96.200 196.031 C 102.242 196.031,102.947 195.962,100.800 195.580 C 98.503 195.171,93.302 195.183,92.000 195.600 M109.400 195.587 C 108.619 195.778,109.927 195.936,113.141 196.040 C 117.949 196.196,119.829 195.969,117.934 195.461 C 116.700 195.131,110.922 195.216,109.400 195.587 M157.257 210.100 C 156.601 211.475,155.945 213.310,155.799 214.179 C 155.653 215.047,155.210 216.170,154.813 216.674 C 154.417 217.178,153.965 218.441,153.809 219.479 C 153.653 220.518,153.197 221.786,152.796 222.296 C 152.395 222.806,151.939 223.979,151.783 224.903 C 151.627 225.827,151.233 226.988,150.908 227.484 C 150.583 227.980,150.108 229.330,149.852 230.483 C 149.450 232.289,149.147 232.739,147.658 233.740 C 145.318 235.311,146.012 236.128,149.723 236.171 C 153.028 236.209,154.050 235.531,152.759 234.157 C 151.490 232.806,151.864 229.793,153.461 228.516 C 154.447 227.727,155.058 227.604,158.000 227.608 C 162.283 227.613,163.205 228.055,163.824 230.400 C 164.085 231.390,164.360 232.380,164.434 232.600 C 164.509 232.820,164.334 233.426,164.046 233.947 C 163.132 235.598,164.231 236.203,168.114 236.186 C 172.616 236.166,174.500 235.027,171.756 233.983 C 171.225 233.781,170.594 233.117,170.355 232.508 C 170.116 231.899,169.590 230.655,169.186 229.743 C 168.783 228.832,168.325 227.392,168.168 226.543 C 168.012 225.695,167.567 224.592,167.179 224.092 C 166.790 223.593,166.350 222.292,166.200 221.200 C 166.050 220.108,165.610 218.807,165.221 218.308 C 164.833 217.808,164.385 216.688,164.225 215.819 C 164.064 214.949,163.614 213.599,163.223 212.819 C 162.833 212.038,162.384 210.860,162.226 210.200 C 161.376 206.657,158.924 206.608,157.257 210.100 M160.185 208.466 C 160.892 208.788,161.338 209.436,161.632 210.566 C 161.865 211.465,162.404 212.866,162.828 213.679 C 163.253 214.493,163.602 215.483,163.604 215.879 C 163.606 216.276,164.028 217.502,164.542 218.605 C 165.055 219.708,165.607 221.310,165.767 222.164 C 165.927 223.018,166.333 224.137,166.670 224.650 C 167.006 225.164,167.449 226.352,167.654 227.292 C 168.320 230.347,170.072 233.905,171.155 234.398 C 172.680 235.093,171.514 235.587,168.333 235.594 C 164.667 235.602,164.244 235.411,165.087 234.124 C 165.634 233.289,165.658 232.985,165.234 232.305 C 164.953 231.856,164.467 230.625,164.154 229.569 C 163.784 228.324,163.305 227.560,162.793 227.398 C 161.855 227.100,161.412 225.642,161.748 223.960 C 161.907 223.166,161.736 222.241,161.252 221.274 C 160.846 220.464,160.392 219.260,160.243 218.600 C 159.611 215.798,159.200 215.220,158.128 215.627 C 156.232 216.348,155.757 214.399,157.167 211.679 C 157.589 210.866,158.125 209.705,158.358 209.100 C 158.845 207.839,158.824 207.846,160.185 208.466 M227.400 213.971 C 225.773 214.364,224.775 214.939,223.669 216.122 L 222.738 217.118 223.969 217.845 L 225.200 218.572 225.204 225.786 L 225.207 233.000 223.932 234.048 L 222.658 235.096 223.629 235.621 C 224.703 236.202,229.576 236.374,231.300 235.892 C 232.671 235.509,232.717 234.673,231.400 234.073 L 230.400 233.617 230.400 225.858 C 230.400 219.448,230.504 218.011,231.000 217.600 C 231.330 217.326,231.600 216.854,231.600 216.551 C 231.600 215.250,237.104 215.845,238.423 217.289 L 239.600 218.578 239.600 226.098 L 239.600 233.617 238.600 234.073 C 237.283 234.673,237.329 235.509,238.700 235.892 C 240.424 236.374,245.297 236.202,246.371 235.621 L 247.342 235.096 246.068 234.048 L 244.793 233.000 244.784 228.000 C 244.770 219.819,244.304 217.316,242.452 215.464 L 240.906 213.918 236.865 213.967 C 232.225 214.023,231.774 214.136,231.419 215.328 L 231.159 216.200 230.802 215.326 C 230.502 214.593,229.158 213.501,228.726 213.641 C 228.657 213.663,228.060 213.812,227.400 213.971 M284.071 213.932 C 280.373 214.456,275.235 222.675,276.789 225.580 C 276.978 225.932,277.340 227.368,277.594 228.769 C 278.043 231.245,279.915 234.400,280.935 234.400 C 281.156 234.400,281.682 234.715,282.104 235.100 C 284.415 237.211,292.988 236.733,295.123 234.373 C 296.735 232.592,295.818 231.280,294.093 232.901 C 290.226 236.534,281.924 231.297,282.470 225.569 L 282.600 224.200 289.639 224.199 C 298.885 224.199,298.837 224.236,296.407 219.000 C 294.439 214.758,290.285 213.051,284.071 213.932 M174.234 214.526 C 173.556 215.021,173.573 215.090,174.522 215.712 C 175.077 216.076,175.649 216.911,175.793 217.568 C 175.937 218.225,176.379 219.176,176.776 219.681 C 177.172 220.187,177.629 221.210,177.792 221.955 C 177.954 222.700,178.516 224.230,179.040 225.355 C 179.564 226.480,179.994 227.691,179.996 228.046 C 179.998 228.401,180.337 229.121,180.748 229.646 C 181.159 230.171,181.631 231.230,181.796 232.000 C 182.993 237.578,187.174 237.132,188.235 231.312 C 188.387 230.481,188.830 229.344,189.221 228.786 C 189.612 228.229,190.057 227.103,190.211 226.283 C 190.365 225.464,190.815 224.380,191.212 223.875 C 191.609 223.370,192.064 222.247,192.223 221.379 C 192.381 220.510,192.822 219.350,193.203 218.800 C 193.584 218.250,194.021 217.394,194.175 216.898 C 194.329 216.402,194.918 215.754,195.484 215.457 L 196.514 214.918 195.197 214.459 C 191.896 213.308,189.173 214.154,190.260 215.994 C 190.762 216.843,190.827 217.286,190.507 217.674 C 190.267 217.963,189.945 218.877,189.791 219.703 C 189.636 220.530,189.189 221.615,188.796 222.114 C 188.404 222.613,187.924 223.827,187.731 224.811 C 187.051 228.269,184.021 227.081,184.002 223.349 C 184.001 223.101,183.731 222.675,183.403 222.402 C 183.074 222.130,182.617 221.163,182.386 220.253 C 182.155 219.344,181.765 218.197,181.518 217.703 C 181.184 217.037,181.187 216.547,181.531 215.792 C 182.285 214.137,176.207 213.083,174.234 214.526 M203.669 214.700 C 203.199 215.085,202.355 215.728,201.793 216.130 C 199.407 217.833,197.654 223.285,198.385 226.730 C 199.828 233.531,204.778 237.566,210.200 236.361 C 210.860 236.215,212.176 236.073,213.123 236.047 C 215.877 235.972,219.264 232.860,217.380 232.137 C 217.023 232.000,216.348 232.285,215.791 232.809 C 212.144 236.234,205.078 232.643,204.168 226.902 C 203.708 224.003,203.948 223.910,211.462 224.066 C 219.437 224.230,219.488 224.205,218.554 220.598 C 217.892 218.040,217.124 216.970,214.640 215.146 C 212.666 213.696,205.260 213.395,203.669 214.700 M250.646 214.529 L 249.491 215.022 250.546 215.502 L 251.600 215.983 251.600 222.337 C 251.600 230.722,251.958 232.542,254.011 234.597 C 255.768 236.356,255.232 236.276,264.200 236.121 C 265.520 236.098,267.524 236.079,268.653 236.079 C 272.125 236.078,274.672 233.594,272.597 232.235 L 271.600 231.582 271.600 224.441 C 271.600 213.966,270.633 212.410,265.368 214.412 L 264.284 214.824 265.142 215.738 C 266.134 216.795,266.459 230.163,265.555 232.756 L 265.111 234.031 261.877 233.915 C 257.183 233.748,257.064 233.495,256.800 223.161 C 256.557 213.625,255.671 212.383,250.646 214.529 M213.510 215.319 C 213.924 215.693,214.444 216.000,214.665 216.000 C 216.234 216.000,219.089 222.505,217.866 223.296 C 217.610 223.462,214.861 223.482,211.758 223.341 C 203.589 222.969,202.958 223.266,203.663 227.145 C 204.482 231.650,207.491 234.550,211.282 234.488 C 212.667 234.466,214.160 234.553,214.600 234.683 L 215.400 234.918 214.600 235.216 C 212.283 236.078,205.478 235.624,203.826 234.497 C 200.791 232.426,200.498 231.876,198.915 225.253 C 198.580 223.850,200.339 218.655,201.558 217.448 C 204.592 214.443,204.673 214.411,208.879 214.529 C 211.860 214.612,212.931 214.795,213.510 215.319 M230.041 215.500 C 230.337 216.274,230.334 217.029,230.031 218.046 C 229.069 221.277,229.482 233.129,230.593 234.159 C 231.935 235.402,231.580 235.601,228.033 235.594 C 224.367 235.586,223.512 235.212,224.976 234.252 L 226.000 233.582 226.000 226.020 L 226.000 218.458 224.964 217.643 L 223.928 216.828 225.842 215.614 C 228.279 214.069,229.481 214.036,230.041 215.500 M241.426 215.619 C 243.764 217.474,243.789 217.574,243.937 225.915 C 244.074 233.608,244.077 233.632,245.061 234.277 C 246.487 235.211,245.606 235.587,241.967 235.594 C 238.420 235.601,238.065 235.402,239.407 234.159 C 240.385 233.252,240.400 233.140,240.390 226.919 C 240.376 217.059,239.750 215.679,235.171 215.407 C 232.087 215.224,232.311 215.267,232.540 214.900 C 233.196 213.847,239.874 214.387,241.426 215.619 M292.012 215.132 C 294.624 217.083,295.603 218.315,296.353 220.595 C 297.375 223.704,297.534 223.640,289.565 223.334 L 282.929 223.080 282.272 224.018 C 279.617 227.809,285.781 235.338,290.885 234.536 C 292.592 234.268,293.930 234.630,293.356 235.204 C 291.418 237.142,280.587 234.880,279.791 232.372 C 279.656 231.947,279.385 231.600,279.188 231.600 C 277.314 231.600,277.532 218.972,279.419 218.248 C 279.739 218.125,280.000 217.767,280.000 217.452 C 280.000 216.941,281.996 215.448,283.600 214.760 C 284.959 214.177,291.096 214.449,292.012 215.132 M180.231 215.821 C 180.055 216.521,180.215 217.148,180.742 217.817 C 181.164 218.354,181.636 219.470,181.791 220.297 C 181.945 221.123,182.264 222.032,182.498 222.316 C 182.733 222.600,183.309 223.950,183.778 225.316 C 184.540 227.537,184.756 227.814,185.815 227.935 C 186.467 228.010,187.197 228.233,187.437 228.432 C 188.451 229.270,186.276 235.600,184.974 235.600 C 184.322 235.600,182.400 232.886,182.400 231.967 C 182.400 231.611,181.971 230.512,181.446 229.525 C 180.922 228.539,180.362 227.117,180.203 226.366 C 180.044 225.615,179.573 224.439,179.157 223.753 C 178.741 223.067,178.400 222.239,178.400 221.912 C 178.400 221.586,177.980 220.527,177.467 219.560 C 176.953 218.592,176.399 217.262,176.235 216.604 C 176.071 215.946,175.726 215.274,175.468 215.110 C 175.211 214.946,176.235 214.809,177.743 214.806 C 180.486 214.800,180.487 214.800,180.231 215.821 M194.104 215.300 C 193.888 215.575,193.588 216.311,193.439 216.935 C 193.140 218.184,192.000 217.785,192.000 216.431 C 192.000 216.062,191.784 215.544,191.520 215.280 C 191.147 214.907,191.424 214.800,192.769 214.800 C 194.096 214.800,194.406 214.916,194.104 215.300 M255.748 215.700 C 255.881 216.195,255.992 219.858,255.995 223.840 L 256.000 231.080 257.160 232.681 C 258.372 234.355,259.347 234.717,263.000 234.849 C 264.599 234.907,264.599 234.907,262.600 235.218 C 253.926 236.569,252.400 234.799,252.400 223.387 C 252.400 219.299,252.226 216.023,251.986 215.574 C 251.603 214.858,251.718 214.800,253.539 214.800 C 255.241 214.800,255.539 214.921,255.748 215.700 M270.010 215.826 C 270.224 216.390,270.400 220.060,270.400 223.982 C 270.400 230.393,270.477 231.206,271.161 232.051 C 272.549 233.765,271.018 235.600,268.200 235.600 C 265.790 235.600,265.658 235.429,266.263 233.094 C 266.899 230.645,267.011 217.408,266.410 215.826 C 266.027 214.819,266.053 214.800,267.820 214.800 C 269.384 214.800,269.671 214.934,270.010 215.826 M207.487 215.539 C 204.938 216.137,202.716 220.659,204.229 222.171 C 205.355 223.297,213.006 223.067,213.782 221.884 C 214.419 220.911,214.026 218.311,213.161 217.776 C 212.935 217.636,212.586 217.090,212.385 216.561 C 212.148 215.938,211.700 215.598,211.110 215.595 C 210.609 215.592,209.840 215.519,209.400 215.433 C 208.960 215.348,208.099 215.395,207.487 215.539 M285.500 215.677 C 284.675 215.898,284.000 216.277,284.000 216.518 C 284.000 216.759,283.556 217.420,283.013 217.986 C 281.894 219.154,281.576 221.208,282.367 222.160 C 283.217 223.184,290.917 223.083,291.966 222.034 C 293.147 220.853,291.715 216.300,290.013 215.829 C 288.325 215.362,286.858 215.313,285.500 215.677 M211.226 216.414 C 211.652 216.642,212.000 217.009,212.000 217.230 C 212.000 217.451,212.376 218.141,212.835 218.762 C 214.633 221.194,213.944 221.786,209.160 221.913 C 204.530 222.036,203.919 221.793,204.269 219.970 C 204.832 217.035,208.696 215.060,211.226 216.414 M290.343 217.266 C 293.478 220.621,292.394 222.061,286.845 221.913 C 281.857 221.780,281.595 221.504,283.586 218.490 C 285.475 215.632,288.332 215.115,290.343 217.266 M159.595 218.900 C 159.829 219.835,160.301 221.222,160.643 221.982 C 161.423 223.715,160.731 224.400,158.200 224.400 C 155.514 224.400,154.979 223.756,155.759 221.461 C 156.111 220.422,156.400 219.254,156.400 218.866 C 156.400 216.564,159.017 216.591,159.595 218.900 M155.418 220.244 C 155.276 221.002,154.989 221.517,154.780 221.388 C 154.346 221.119,154.273 219.195,154.660 218.189 C 155.113 217.008,155.718 218.648,155.418 220.244 M191.600 220.601 C 191.292 222.628,191.061 223.009,190.391 222.594 C 189.958 222.327,190.070 220.666,190.655 218.679 C 191.113 217.125,191.888 218.702,191.600 220.601 M154.498 225.728 C 153.966 227.904,152.397 228.333,152.405 226.300 C 152.408 225.585,152.522 224.586,152.658 224.079 L 152.904 223.158 153.807 224.007 C 154.412 224.575,154.640 225.144,154.498 225.728 M189.739 224.759 C 189.629 227.073,189.228 228.121,188.639 227.633 C 188.149 227.225,188.148 226.462,188.639 224.072 C 188.918 222.711,189.810 223.269,189.739 224.759 M151.388 231.655 C 150.985 233.489,150.228 232.440,150.585 230.542 C 150.822 229.275,150.935 229.140,151.263 229.727 C 151.480 230.114,151.536 230.981,151.388 231.655 M151.804 234.166 L 152.700 235.133 151.850 235.361 C 148.689 236.209,146.457 235.248,148.871 234.078 C 151.022 233.036,150.748 233.027,151.804 234.166 " stroke="none" fill="#848484" fill-rule="evenodd"></path></g></svg>